<svg width="74" height="34" viewBox="0 0 74 34" fill="none" xmlns="http://www.w3.org/2000/svg">
<path d="M1.276 33.724C1.036 33.724 0.832 33.64 0.664 33.472C0.496 33.304 0.412 33.1 0.412 32.86V0.927999C0.412 0.687999 0.496 0.483999 0.664 0.315998C0.832 0.147999 1.036 0.0639992 1.276 0.0639992H8.944C9.184 0.0639992 9.388 0.147999 9.556 0.315998C9.724 0.483999 9.808 0.687999 9.808 0.927999V3.124C9.808 3.364 9.724 3.568 9.556 3.736C9.388 3.904 9.184 3.988 8.944 3.988H4.804V29.548H8.944C9.184 29.548 9.388 29.632 9.556 29.8C9.724 29.968 9.808 30.172 9.808 30.412V32.86C9.808 33.1 9.724 33.304 9.556 33.472C9.388 33.64 9.184 33.724 8.944 33.724H1.276ZM21.7201 28.36C19.4881 28.36 17.6161 28.036 16.1041 27.388C14.6161 26.716 13.4761 25.852 12.6841 24.796C11.9161 23.716 11.5081 22.588 11.4601 21.412C11.4601 21.196 11.5321 21.016 11.6761 20.872C11.8201 20.728 12.0001 20.656 12.2161 20.656H15.4201C15.7321 20.656 15.9601 20.728 16.1041 20.872C16.2721 20.992 16.4161 21.148 16.5361 21.34C16.6801 21.796 16.9561 22.252 17.3641 22.708C17.7721 23.14 18.3241 23.5 19.0201 23.788C19.7401 24.076 20.6401 24.22 21.7201 24.22C23.4481 24.22 24.7321 23.932 25.5721 23.356C26.4361 22.78 26.8681 22 26.8681 21.016C26.8681 20.32 26.6401 19.768 26.1841 19.36C25.7281 18.928 25.0201 18.544 24.0601 18.208C23.1241 17.848 21.8761 17.476 20.3161 17.092C18.5161 16.66 17.0041 16.144 15.7801 15.544C14.5801 14.92 13.6681 14.14 13.0441 13.204C12.4441 12.268 12.1441 11.08 12.1441 9.64C12.1441 8.248 12.5161 7.012 13.2601 5.932C14.0281 4.852 15.1081 4 16.5001 3.376C17.9161 2.752 19.5961 2.44 21.5401 2.44C23.1001 2.44 24.4801 2.656 25.6801 3.088C26.8801 3.496 27.8761 4.048 28.6681 4.744C29.4601 5.416 30.0601 6.148 30.4681 6.94C30.9001 7.708 31.1281 8.464 31.1521 9.208C31.1521 9.4 31.0801 9.58 30.9361 9.748C30.8161 9.892 30.6361 9.964 30.3961 9.964H27.0481C26.8561 9.964 26.6641 9.916 26.4721 9.82C26.2801 9.724 26.1241 9.544 26.0041 9.28C25.8601 8.536 25.3921 7.9 24.6001 7.372C23.8081 6.844 22.7881 6.58 21.5401 6.58C20.2441 6.58 19.2001 6.82 18.4081 7.3C17.6161 7.78 17.2201 8.524 17.2201 9.532C17.2201 10.204 17.4121 10.768 17.7961 11.224C18.2041 11.656 18.8401 12.04 19.7041 12.376C20.5921 12.712 21.7561 13.072 23.1961 13.456C25.2361 13.912 26.9041 14.44 28.2001 15.04C29.4961 15.64 30.4441 16.408 31.0441 17.344C31.6441 18.256 31.9441 19.42 31.9441 20.836C31.9441 22.42 31.5121 23.776 30.6481 24.904C29.8081 26.008 28.6201 26.86 27.0841 27.46C25.5481 28.06 23.7601 28.36 21.7201 28.36ZM36.9697 28C36.7057 28 36.4897 27.916 36.3217 27.748C36.1537 27.58 36.0697 27.376 36.0697 27.136V3.7C36.0697 3.436 36.1537 3.22 36.3217 3.052C36.4897 2.884 36.7057 2.8 36.9697 2.8H39.8137C40.1497 2.8 40.4017 2.896 40.5697 3.088C40.7377 3.256 40.8457 3.388 40.8937 3.484L47.8417 16.444L54.8617 3.484C54.9097 3.388 55.0177 3.256 55.1857 3.088C55.3537 2.896 55.6057 2.8 55.9417 2.8H58.7497C59.0137 2.8 59.2297 2.884 59.3977 3.052C59.5657 3.22 59.6497 3.436 59.6497 3.7V27.136C59.6497 27.376 59.5657 27.58 59.3977 27.748C59.2297 27.916 59.0137 28 58.7497 28H55.7257C55.4617 28 55.2457 27.916 55.0777 27.748C54.9337 27.58 54.8617 27.376 54.8617 27.136V11.548L49.8217 21.16C49.7017 21.376 49.5457 21.568 49.3537 21.736C49.1617 21.88 48.9097 21.952 48.5977 21.952H47.1217C46.7857 21.952 46.5217 21.88 46.3297 21.736C46.1617 21.568 46.0177 21.376 45.8977 21.16L40.8577 11.548V27.136C40.8577 27.376 40.7737 27.58 40.6057 27.748C40.4377 27.916 40.2337 28 39.9937 28H36.9697ZM64.7688 33.724C64.5288 33.724 64.3248 33.64 64.1567 33.472C63.9888 33.304 63.9048 33.1 63.9048 32.86V30.412C63.9048 30.172 63.9888 29.968 64.1567 29.8C64.3248 29.632 64.5288 29.548 64.7688 29.548H68.9088V3.988H64.7688C64.5288 3.988 64.3248 3.904 64.1567 3.736C63.9888 3.568 63.9048 3.364 63.9048 3.124V0.927999C63.9048 0.687999 63.9888 0.483999 64.1567 0.315998C64.3248 0.147999 64.5288 0.0639992 64.7688 0.0639992H72.4368C72.7008 0.0639992 72.9048 0.147999 73.0488 0.315998C73.2168 0.483999 73.3008 0.687999 73.3008 0.927999V32.86C73.3008 33.1 73.2168 33.304 73.0488 33.472C72.9048 33.64 72.7008 33.724 72.4368 33.724H64.7688Z" fill="#E7EE1A"/>
</svg>
