<svg width="314" height="30" viewBox="0 0 314 30" fill="none" xmlns="http://www.w3.org/2000/svg">
<path d="M0.56 23.2C7.86667 23.6 12.8133 23.8 15.4 23.8C16.0133 23.8 16.4933 23.6267 16.84 23.28C17.2133 22.9067 17.4 22.4133 17.4 21.8V18.2H8.2C5.4 18.2 3.36 17.5733 2.08 16.32C0.826667 15.04 0.2 13 0.2 10.2V9C0.2 6.2 0.826667 4.17333 2.08 2.92C3.36 1.64 5.4 0.999998 8.2 0.999998H22.24V6.6H9.8C8.2 6.6 7.4 7.4 7.4 9V9.8C7.4 11.4 8.2 12.2 9.8 12.2H17C19.6133 12.2 21.5333 12.8133 22.76 14.04C23.9867 15.2667 24.6 17.1867 24.6 19.8V21.8C24.6 24.4133 23.9867 26.3333 22.76 27.56C21.5333 28.7867 19.6133 29.4 17 29.4C15.64 29.4 14.2 29.3733 12.68 29.32L9 29.16C6.28 29.0267 3.46667 28.84 0.56 28.6V23.2ZM42.5969 29C40.0102 29.2667 37.4769 29.4 34.9969 29.4C33.1835 29.4 31.7302 28.8533 30.6369 27.76C29.5435 26.6667 28.9969 25.2133 28.9969 23.4V13.2H26.5969V7.8H28.9969L29.7969 3H35.9969V7.8H40.9969V13.2H35.9969V22.4C35.9969 22.8 36.1302 23.1333 36.3969 23.4C36.6635 23.6667 36.9969 23.8 37.3969 23.8H42.5969V29ZM53.2234 12.4C52.1568 12.4 51.6234 12.9333 51.6234 14V16.2H58.4234V14C58.4234 12.9333 57.8901 12.4 56.8234 12.4H53.2234ZM64.6234 28.6C59.4768 29.1333 54.8101 29.4 50.6234 29.4C48.8101 29.4 47.3568 28.8533 46.2634 27.76C45.1701 26.6667 44.6234 25.2133 44.6234 23.4V13.8C44.6234 11.8 45.1834 10.24 46.3034 9.12C47.4501 7.97333 49.0234 7.4 51.0234 7.4H59.0234C61.0234 7.4 62.5834 7.97333 63.7034 9.12C64.8501 10.24 65.4234 11.8 65.4234 13.8V21.2H51.6234V22.8C51.6234 23.2 51.7568 23.5333 52.0234 23.8C52.2901 24.0667 52.6234 24.2 53.0234 24.2C55.6634 24.2 59.5301 24 64.6234 23.6V28.6ZM82.8172 7.8H90.2172L82.2172 29H74.2172L66.2172 7.8H73.6172L78.2172 22.2L82.8172 7.8ZM99.6297 12.4C98.563 12.4 98.0297 12.9333 98.0297 14V16.2H104.83V14C104.83 12.9333 104.296 12.4 103.23 12.4H99.6297ZM111.03 28.6C105.883 29.1333 101.216 29.4 97.0297 29.4C95.2164 29.4 93.763 28.8533 92.6697 27.76C91.5764 26.6667 91.0297 25.2133 91.0297 23.4V13.8C91.0297 11.8 91.5897 10.24 92.7097 9.12C93.8564 7.97333 95.4297 7.4 97.4297 7.4H105.43C107.43 7.4 108.99 7.97333 110.11 9.12C111.256 10.24 111.83 11.8 111.83 13.8V21.2H98.0297V22.8C98.0297 23.2 98.163 23.5333 98.4297 23.8C98.6964 24.0667 99.0297 24.2 99.4297 24.2C102.07 24.2 105.936 24 111.03 23.6V28.6ZM127.214 13.2C125.801 13.2 124.201 13.4667 122.414 14V29H115.414V7.8H121.614L122.014 9.8C123.267 8.97333 124.547 8.37333 125.854 8C127.187 7.6 128.307 7.4 129.214 7.4H131.014C132.827 7.4 134.281 7.94667 135.374 9.04C136.467 10.1333 137.014 11.5867 137.014 13.4V29H130.014V14.6C130.014 14.2 129.881 13.8667 129.614 13.6C129.347 13.3333 129.014 13.2 128.614 13.2H127.214Z" fill="white"/>
<path d="M165.009 13.4L159.409 23.4H153.809L148.209 13.4V29H141.009V0.999998H148.609L156.609 15.8L164.609 0.999998H172.209V29H165.009V13.4ZM195.025 8.6C195.025 7 194.225 6.2 192.625 6.2H185.825C184.225 6.2 183.425 7 183.425 8.6V21.4C183.425 23 184.225 23.8 185.825 23.8H192.625C194.225 23.8 195.025 23 195.025 21.4V8.6ZM202.225 21.4C202.225 24.2 201.585 26.24 200.305 27.52C199.052 28.7733 197.025 29.4 194.225 29.4H184.225C181.425 29.4 179.385 28.7733 178.105 27.52C176.852 26.24 176.225 24.2 176.225 21.4V8.6C176.225 5.8 176.852 3.77333 178.105 2.52C179.385 1.24 181.425 0.599998 184.225 0.599998H194.225C197.025 0.599998 199.052 1.24 200.305 2.52C201.585 3.77333 202.225 5.8 202.225 8.6V21.4ZM221.844 0.999998C224.857 0.999998 227.137 1.78666 228.684 3.36C230.257 4.90667 231.044 7.18667 231.044 10.2V19.8C231.044 22.8133 230.257 25.1067 228.684 26.68C227.137 28.2267 224.857 29 221.844 29H206.244V0.999998H221.844ZM223.844 10.2C223.844 7.8 222.644 6.6 220.244 6.6H213.444V23.4H220.244C222.644 23.4 223.844 22.2 223.844 19.8V10.2ZM248.233 29H233.833V23.4H237.433V6.6H233.833V0.999998H248.233V6.6H244.633V23.4H248.233V29ZM275.83 13.4L270.23 23.4H264.63L259.03 13.4V29H251.83V0.999998H259.43L267.43 15.8L275.43 0.999998H283.03V29H275.83V13.4ZM305.845 8.6C305.845 7 305.045 6.2 303.445 6.2H296.645C295.045 6.2 294.245 7 294.245 8.6V21.4C294.245 23 295.045 23.8 296.645 23.8H303.445C305.045 23.8 305.845 23 305.845 21.4V8.6ZM313.045 21.4C313.045 24.2 312.405 26.24 311.125 27.52C309.872 28.7733 307.845 29.4 305.045 29.4H295.045C292.245 29.4 290.205 28.7733 288.925 27.52C287.672 26.24 287.045 24.2 287.045 21.4V8.6C287.045 5.8 287.672 3.77333 288.925 2.52C290.205 1.24 292.245 0.599998 295.045 0.599998H305.045C307.845 0.599998 309.872 1.24 311.125 2.52C312.405 3.77333 313.045 5.8 313.045 8.6V21.4Z" fill="#DEC544"/>
</svg>
