<svg xmlns="http://www.w3.org/2000/svg" version="1.1" xmlns:xlink="http://www.w3.org/1999/xlink" xmlns:svgjs="http://svgjs.dev/svgjs" width="2000" height="1500" viewBox="0 0 2000 1500"><rect width="2000" height="1500" fill="#050608"></rect><g transform="matrix(0.4444444444444444,0,0,0.4444444444444444,555.5557073912273,250)"><svg viewBox="0 0 320 360" data-background-color="#050608" preserveAspectRatio="xMidYMid meet" height="2250" width="2000" xmlns="http://www.w3.org/2000/svg" xmlns:xlink="http://www.w3.org/1999/xlink"><g id="tight-bounds" transform="matrix(1,0,0,1,0.00005466084189720277,0)"><svg viewBox="0 0 320 360" height="360" width="320"><g><svg></svg></g><g><svg viewBox="0 0 320 360" height="360" width="320"><g><path transform="translate(-119.39272,-98.31927) scale(5.58313,5.58313)" d="M36.7 23.5c0-0.2 0.1-0.4 0.3-0.4 0.2 0 0.4 0.1 0.4 0.4 0.1 0 0.3 0 0.4-0.1 0.4 0 0.8-0.1 1.1 0 0.3 0.1 0.5 0.1 0.8 0.2 0.3 0.1 0.5 0 0.7-0.1 0.4-0.1 0.7-0.3 1.1-0.4 0.2-0.1 0.3-0.1 0.5-0.1 0.2-0.1 0.4-0.1 0.7-0.2 0.5-0.1 1-0.2 1.4-0.4 0.4-0.2 0.8-0.2 1.2-0.3 0.2 0 0.3-0.1 0.5-0.2 0.1 0 0.1-0.1 0.2-0.2 0.2-0.1 0.3-0.2 0.5-0.1 0.1 0.1 0.3 0.1 0.4 0h0.1c0.6 0 1.2-0.1 1.9 0 0.1 0 0.2 0 0.2 0 0.3-0.2 0.7-0.2 1.1-0.2 0.1 0 0.3 0 0.4 0h0.1c0.4 0 0.8 0 1.1 0.1 0.3 0 0.5 0.1 0.8 0.2 0.3 0 0.5 0 0.8 0.1 0.2 0 0.4 0 0.6 0 0.1 0 0.2 0 0.2 0 0.4 0.1 0.8 0.1 1.2 0.1 0.3 0.1 0.6 0.2 1 0.2 0.1 0 0.2 0 0.3 0 0.1 0 0.2 0.1 0.3 0.1l0.1 0.1c0.4 0 0.7 0.2 1.1 0.2 0.1 0 0.3 0 0.4 0.1 0.3 0.2 0.7 0.3 1.1 0.3 0.2 0 0.3 0.1 0.4 0.2 0.3 0.1 0.5 0.2 0.8 0.3 0.2 0.1 0.4 0 0.6 0.1 0.3 0.1 0.7 0.2 1 0.5 0.2 0.2 0.4 0.2 0.7 0.4 0.1 0 0.2 0.1 0.3 0.2 0.3 0.2 0.6 0.4 0.9 0.5 0.1 0 0.2 0.1 0.3 0.1 0.3 0.2 0.6 0.5 1 0.7 0.2 0.1 0.3 0.2 0.5 0.3h0.1c0.3 0.3 0.7 0.5 1 0.8 0.3 0.3 0.5 0.5 0.9 0.7 0 0 0 0 0 0.1 0.1 0.2 0.2 0.3 0.4 0.4 0.2 0.1 0.3 0.2 0.4 0.3 0.3 0.2 0.6 0.4 0.8 0.6 0.1 0.1 0.2 0.2 0.4 0.4 0.1 0.1 0.2 0.2 0.3 0.2 0.4 0.1 0.6 0.4 0.9 0.7 0.2 0.2 0.5 0.5 0.7 0.7 0.1 0.1 0.2 0.3 0.3 0.5 0.2 0.6 0.5 1.2 0.8 1.7 0 0 0 0.1 0.1 0.2v0.1c0.2 0.2 0.3 0.5 0.5 0.7 0.1 0.1 0.1 0.2 0.2 0.3 0.2 0.3 0.3 0.7 0.5 1 0.3 0.5 0.5 1 0.7 1.5v0.1c0.1 0.2 0.2 0.4 0.3 0.7 0 0.2 0.2 0.4 0.3 0.7 0.1 0.5 0.4 1 0.5 1.6 0 0.1 0.1 0.2 0.1 0.4 0.1 0.3 0.2 0.6 0.3 0.9 0 0.1 0.1 0.2 0.2 0.3 0.2 0.2 0.2 0.4 0.2 0.6-0.1 0.4 0 0.8 0.1 1.2 0 0.1 0 0.2 0 0.4 0.1 0.4 0.2 0.9 0.2 1.3 0 0.1 0 0.3 0 0.4 0 0.3 0.1 0.6 0.3 0.9 0 0.1 0.1 0.1 0.1 0.1 0.1 0.1 0.2 0.3 0.3 0.4 0.1 0.1 0.1 0.1 0.2 0.2 0.2 0.2 0.3 0.4 0.3 0.7 0 0.1-0.1 0.3-0.1 0.4 0 0.1 0 0.3 0.1 0.4 0.1 0.1 0.1 0.2 0.1 0.3 0 0.1-0.1 0.2-0.2 0.2v0c-0.1 0.3-0.5 0.4-0.6 0.7-0.1 0.4-0.2 0.8-0.3 1.2-0.1 0.3-0.1 0.5-0.1 0.8 0 0.3-0.1 0.5-0.1 0.8-0.1 0.4-0.2 0.8-0.3 1.2 0 0.2-0.1 0.4-0.1 0.6 0.1 0.1 0.2 0.2 0.3 0.2 0.2 0.2 0.4 0.4 0.6 0.6 0.1 0.1 0.1 0.2 0 0.2-0.1 0.1-0.2 0.1-0.3 0.1-0.1-0.1-0.3-0.2-0.4-0.2-0.1-0.1-0.3-0.2-0.5-0.1 0 0.2-0.1 0.4-0.1 0.5-0.1 0.2-0.2 0.5-0.2 0.7-0.1 0.4-0.3 0.7-0.4 1.1-0.2 0.5-0.4 0.9-0.6 1.3-0.1 0.2-0.2 0.4-0.3 0.6v0c0 0.3-0.3 0.6-0.4 0.9-0.2 0.4-0.4 0.8-0.6 1.3-0.1 0.2-0.2 0.4-0.3 0.5-0.2 0.5-0.4 0.9-0.7 1.3-0.2 0.3-0.4 0.5-0.6 0.6-0.2 0.2-0.4 0.4-0.6 0.6-0.1 0.1-0.2 0.2-0.3 0.3-0.1 0.1-0.1 0.1-0.2 0.2-0.2 0.3-0.5 0.5-0.7 0.8-0.2 0.2-0.3 0.4-0.6 0.6-0.2 0.2-0.4 0.5-0.7 0.6-0.1 0.1-0.2 0.3-0.3 0.4-0.1 0.1-0.2 0.3-0.3 0.4 0 0.2 0.1 0.4 0.1 0.5 0 0.3-0.3 0.4-0.5 0.2-0.3-0.2-0.3-0.2-0.6 0-0.3 0.2-0.6 0.5-1 0.6-0.1 0-0.1 0.1-0.2 0.1-0.2 0.1-0.3 0.3-0.5 0.4-0.2 0.2-0.5 0.3-0.7 0.5-0.1 0.1-0.2 0.1-0.3 0.2-0.3 0.2-0.6 0.3-0.9 0.6-0.1 0.1-0.2 0.1-0.3 0.2 0 0.1 0 0.1 0 0.2 0 0.2-0.2 0.4-0.5 0.3-0.3-0.1-0.5 0-0.8 0-0.3 0.1-0.6 0.3-0.9 0.4-0.1 0-0.2 0.1-0.3 0.2-0.3 0.2-0.6 0.3-0.9 0.4-0.2 0-0.4 0.2-0.6 0.2-0.1 0-0.2 0.1-0.3 0.1h-0.1c-0.4 0.3-0.8 0.5-1.2 0.8-0.1 0-0.1 0.1-0.2 0.2-0.1 0.2-0.2 0.3-0.4 0.3-0.5 0-0.7 0.4-0.6 0.8 0 0.1 0.1 0.2 0.1 0.3 0.1 0.2 0 0.4-0.1 0.5-0.1 0.1-0.4 0.1-0.5-0.1-0.2-0.2-0.3-0.4-0.4-0.7-0.1-0.2-0.3-0.4-0.5-0.5-0.2-0.1-0.4-0.1-0.6 0-0.1 0-0.1 0.1-0.2 0.1-0.2 0.2-0.5 0.3-0.8 0.2-0.1 0-0.3 0-0.3 0.1-0.1 0.1-0.1 0.3 0 0.4 0.2 0.2 0.1 0.4 0.1 0.7 0 0.4-0.3 0.6-0.7 0.4-0.1-0.1-0.2-0.1-0.3-0.2-0.1 0-0.1-0.1-0.1-0.2-0.1-0.1-0.1-0.3-0.2-0.5-0.2 0.1-0.4 0.1-0.6 0.2-0.1 0-0.2 0.1-0.3 0.1-0.3 0-0.4 0-0.5-0.3-0.1-0.3-0.3-0.3-0.5-0.4-0.4-0.1-0.9-0.1-1.3-0.3h-0.1c-0.4-0.3-0.8-0.3-1.3-0.3-0.3 0-0.6 0.1-0.9 0.1-0.3 0-0.5 0.1-0.7 0.3-0.1 0.1-0.2 0.2-0.3 0.2-0.1-0.1-0.1-0.2-0.2-0.3v-0.1c0-0.1-0.1-0.2-0.2-0.1-0.2 0.1-0.4-0.1-0.6-0.2-0.1-0.1-0.3-0.3-0.3-0.5-0.1-0.1-0.2-0.2-0.3-0.2-0.2 0-0.5-0.1-0.7-0.1-0.1 0-0.2 0-0.2-0.1-0.1-0.1-0.2-0.1-0.4-0.1-0.1 0-0.1-0.1-0.2-0.1 0.2 0.2 0.3 0.4 0.4 0.6 0 0.1 0.1 0.1 0.1 0.2 0.1 0.2 0 0.3-0.3 0.3-0.2 0-0.2 0-0.3 0.1 0 0.2 0 0.3 0 0.5 0 0.1 0 0.2-0.2 0.3 0 0-0.1 0-0.1 0.1-0.1 0.1-0.1 0.2 0 0.3 0.3 0.2 0.5 0.3 0.8 0.4 0.3 0 0.3 0.2 0.4 0.4 0.1 0.2 0 0.3-0.1 0.5-0.2 0.2-0.4 0.4-0.6 0.6-0.3 0.1-0.5 0.4-0.8 0.4-0.2 0-0.4-0.1-0.5-0.3-0.1-0.5-0.1-0.9 0.1-1.4 0-0.1 0.1-0.2 0-0.3-0.9 0-0.9-0.2-0.9-0.3 0-0.2 0.1-0.3 0.1-0.5 0.1-0.2 0-0.3-0.3-0.4-0.1 0-0.2 0-0.3 0-0.1 0-0.1-0.1-0.3-0.1 0.2-0.1 0.3-0.1 0.5-0.2-0.1-0.4-0.2-0.7-0.5-0.9-0.1-0.1-0.2-0.2-0.2-0.4 0-0.3-0.2-0.5-0.3-0.7-0.2-0.3-0.6-0.4-0.9-0.4-0.3-0.1-0.5-0.1-0.8-0.2-0.3-0.1-0.6-0.4-0.9-0.5-0.1-0.1-0.2-0.2-0.4-0.3-0.4-0.2-0.7-0.5-1-0.8-0.2-0.1-0.3-0.3-0.5-0.4-0.2-0.2-0.3-0.4-0.5-0.5-0.2-0.2-0.4-0.4-0.7-0.6-0.3-0.2-0.5-0.5-0.8-0.8-0.2-0.3-0.5-0.5-0.8-0.7-0.1 0-0.2 0-0.3 0-0.1 0-0.2 0.1-0.3 0.1-0.3 0.1-0.5 0.3-0.8 0.4 0.1-0.1 0.1-0.1 0-0.3-0.1-0.1-0.2-0.2-0.3-0.2-0.2 0-0.4 0-0.6 0-0.4 0-0.8 0.1-1.2 0.1-0.3 0-0.7 0.1-1 0.2 0.1 0.2 0.1 0.3 0.2 0.5-0.2 0.1-0.4 0.1-0.6 0.1-0.1 0-0.3 0.1-0.4 0.2-0.1 0-0.1 0.1-0.2 0-0.2-0.1-0.4 0-0.6 0.1h-0.1c0 0 0-0.1 0.1-0.1 0.1-0.1 0.2-0.2 0.3-0.3 0.1-0.1 0.2-0.1 0.4-0.2-0.1-0.1-0.1-0.2-0.1-0.2-0.1-0.1-0.2-0.1-0.3 0-0.1 0.1-0.2 0.2-0.3 0.3-0.1 0.1-0.2 0.1-0.3 0-0.1-0.1-0.1-0.2 0-0.3 0-0.1 0.1-0.2 0.2-0.3 0.1-0.1 0.1-0.2 0.2-0.3-0.2-0.2-0.3-0.4-0.5-0.5-0.3-0.2-0.6-0.5-0.8-0.8-0.2-0.4-0.5-0.7-0.9-0.9-0.1-0.1-0.2-0.2-0.3-0.3-0.1-0.1-0.1-0.1-0.2-0.2-0.3 0.1-0.5 0.3-0.8 0.4-0.1 0-0.1 0.1-0.2 0.2-0.1 0.2-0.3 0.2-0.5 0.2-0.1 0-0.2-0.1-0.1-0.2 0.1-0.2 0.2-0.4 0.5-0.3 0 0 0.1 0 0.1-0.1 0.2-0.2 0.4-0.5 0.7-0.7-0.1-0.3-0.3-0.5-0.4-0.7-0.1-0.1-0.1-0.2-0.1-0.4 0-0.1 0-0.1-0.1-0.2 0 0-0.1 0-0.2 0.1-0.1 0.1-0.3 0.2-0.5 0 0-0.1 0-0.2 0.1-0.3l0.1-0.1c0.3-0.1 0.3-0.4 0.3-0.7v-0.1c-0.1-0.2-0.1-0.3 0.1-0.5 0.3-0.2 0.6-0.6 0.7-0.9 0.1-0.2 0.3-0.3 0.5-0.5 0.2-0.2 0.4-0.4 0.5-0.7h0.1c0.4 0.1 0.5-0.2 0.7-0.5 0-0.1 0-0.2 0.1-0.2 0.2-0.2 0.2-0.4 0.1-0.7 0-0.1-0.1-0.3-0.1-0.4 0-0.1 0-0.1-0.1-0.2-0.3-0.2-0.3-0.4 0-0.6 0.2-0.1 0.2-0.3 0.3-0.4 0.1-0.2 0.1-0.4 0.1-0.7-0.1-0.3-0.1-0.7-0.2-1-0.1-0.4-0.2-0.9-0.3-1.3 0-0.1 0-0.1 0-0.2 0-0.3 0-0.5-0.1-0.8-0.1-0.1-0.1-0.3-0.1-0.4-0.1-0.3-0.2-0.5-0.5-0.6-0.3-0.2-0.7-0.3-1-0.5-0.1-0.1-0.2 0-0.3 0.1-0.1 0.2-0.3 0.4-0.4 0.6-0.1 0.1-0.2 0.3-0.3 0.5-0.2 0.2-0.6 0.4-0.9 0.1-0.1-0.2-0.2-0.3 0-0.5 0.2-0.3 0.4-0.6 0.7-0.8 0.1-0.1 0.2-0.3 0.3-0.4 0.1-0.2 0.1-0.4 0.1-0.6-0.1-0.4-0.2-0.8-0.2-1.3 0-0.5 0-0.9 0.1-1.4 0.1-0.2 0.1-0.5 0.2-0.7 0-0.1 0.1-0.3 0.2-0.4 0.2-0.2 0.4-0.4 0.5-0.7 0.1-0.3 0.3-0.6 0.3-0.9 0-0.1 0.1-0.2 0.1-0.3 0-0.1 0.1-0.3 0.1-0.4-0.1-0.3 0-0.5 0.1-0.7 0.1-0.2 0.2-0.5 0.3-0.7 0.2-0.4 0.2-0.9 0.6-1.3 0.1-0.2 0.2-0.4 0.3-0.6 0.1-0.4 0.3-0.7 0.5-1 0.1-0.1 0.1-0.1 0.1-0.2 0.1-0.3 0.3-0.6 0.5-0.9 0.2-0.3 0.2-0.6 0.3-0.9 0-0.1 0-0.2 0.1-0.3 0.3-0.3 0.2-0.7 0.1-1.1-0.2-0.5-0.3-1-0.2-1.5 0-0.1 0-0.2 0.1-0.2 0.1-0.2 0.1-0.3 0.2-0.5v-0.1c0.2-0.2 0.4-0.5 0.7-0.6 0.4-0.2 0.8-0.3 1.3-0.4 0.4 0 0.8-0.2 1.1-0.6 0-0.1 0.1-0.1 0.2-0.2l0.1-0.1c0.1-0.2 0.2-0.3 0.3-0.4 0.2-0.2 0.4-0.5 0.6-0.7 0.2-0.2 0.4-0.5 0.7-0.8l0.1-0.1c0.2-0.2 0.4-0.4 0.6-0.5 0.2-0.2 0.4-0.4 0.6-0.6 0.2-0.2 0.3-0.4 0.5-0.6 0.2-0.1 0.4-0.3 0.6-0.5 0.2-0.2 0.4-0.4 0.5-0.5 0.2-0.2 0.5-0.4 0.7-0.5 0.2-0.1 0.4-0.2 0.5-0.5 0.1-0.3 0.2-0.5 0.3-0.8 0-0.2 0.1-0.4 0.2-0.6 0.1 0 0.2 0 0.4-0.1-0.1-0.1-0.2-0.1-0.2-0.2 0-0.1 0.1-0.2 0.1-0.2 0-0.1 0.1-0.2 0.1-0.3 0 0 0.1 0 0.1-0.1 0 0 0.1 0 0.1-0.1-0.2 0.1-0.3 0-0.4-0.1 0.1 0.1 0.2 0.1 0.4 0.2 0 0 0.1 0 0.1-0.1 0-0.1 0-0.2 0-0.2 0 0-0.1 0-0.2 0-0.1 0-0.2 0.1-0.3 0.1zM54 70.5c0-0.1-0.1-0.1-0.1-0.2-0.1-0.2 0-0.3 0.1-0.4 0.1-0.1 0.2-0.1 0.4-0.1 0.2 0.1 0.3 0.2 0.3 0.4 0 0.1 0 0.3 0 0.4 0.1 0.4 0.1 0.4 0.5 0.4 0.2 0 0.4 0 0.6 0 0.4-0.1 0.8-0.3 1.2-0.4 0.4-0.1 0.8-0.2 1.2-0.3 0.1 0 0.2 0 0.4 0 0.4 0.1 0.7 0 1-0.2 0.1-0.1 0.3-0.1 0.4-0.2 0.2-0.1 0.4-0.1 0.6-0.2 0.5-0.3 1-0.5 1.4-0.8 0.3-0.2 0.6-0.4 0.9-0.6 0.3-0.2 0.6-0.4 0.9-0.6 0.2-0.1 0.5-0.3 0.7-0.5 0.4-0.3 0.7-0.6 1.1-0.8 0.2-0.1 0.3-0.2 0.4-0.3 0.2-0.1 0.3-0.3 0.5-0.4 0.1-0.1 0.2-0.2 0.4-0.3 0.1-0.1 0.1-0.1 0.1-0.2 0.3-0.2 0.6-0.6 0.8-0.9 0.2-0.2 0.4-0.4 0.6-0.7 0.3-0.3 0.5-0.7 0.8-1.1 0.2-0.2 0.4-0.5 0.5-0.7 0.2-0.4 0.4-0.8 0.7-1.1v-0.1c0.2-0.4 0.4-0.8 0.6-1.2 0.3-0.5 0.5-1.1 0.8-1.6 0.1-0.2 0.2-0.4 0.2-0.6 0.2-0.4 0.3-0.8 0.4-1.2 0-0.1 0-0.1 0.1-0.2 0.3-0.6 0.5-1.2 0.6-1.9 0.1-0.4 0.2-0.8 0.3-1.2 0.2-0.6 0.2-1.1 0.3-1.7 0.1-0.4 0.1-0.9 0.1-1.3 0.1-0.6 0.1-1.3 0-1.9 0-0.5-0.1-1.1-0.1-1.6 0-0.5-0.1-0.9-0.2-1.4-0.1-0.5-0.2-0.9-0.3-1.4-0.2-0.4-0.3-0.8-0.4-1.3-0.1-0.4-0.3-0.7-0.3-1.1 0-0.3-0.1-0.6-0.4-0.7-0.3-0.1-0.5-0.2-0.8-0.4-0.6-0.4-0.9-0.9-0.8-1.5 0-0.3 0.1-0.7 0.2-1 0.1-0.3 0.2-0.6 0-0.8-0.1-0.3-0.3-0.5-0.4-0.7-0.2-0.3-0.3-0.5-0.5-0.7-0.2-0.4-0.4-0.8-0.7-1.1-0.4-0.5-0.7-1-1.2-1.4l-0.1-0.1c-0.3-0.4-0.6-0.8-1-1.1-0.2-0.2-0.4-0.4-0.6-0.5-0.1-0.1-0.2-0.2-0.4-0.3-0.3-0.2-0.6-0.3-0.8-0.5-0.3-0.3-0.7-0.5-1-0.7 0 0-0.1 0-0.1-0.1-0.4-0.2-0.7-0.3-1.1-0.5-0.4-0.2-0.8-0.3-1.2-0.3-0.1 0-0.1 0-0.2 0-0.1-0.1-0.3-0.1-0.4-0.1-0.1 0-0.1 0-0.2 0-0.2-0.1-0.5 0-0.7 0-0.4 0.1-0.8 0.1-1.2-0.1-0.5-0.2-0.9-0.4-1.3-0.6-0.3-0.2-0.5-0.4-0.8-0.6-0.6-0.5-1.2-1.1-1.9-1.6 0.1-0.5-0.1-0.6-0.5-0.6-0.2 0-0.4 0.1-0.6 0.2-0.1 0.1-0.1 0.1-0.2 0.2-0.3 0.2-0.5 0.5-0.8 0.7-0.5 0.3-0.7 0.2-1.1 0-0.1-0.1-0.2-0.2-0.3-0.3-0.2-0.2-0.4-0.5-0.5-0.7-0.2-0.4-0.6-0.4-1-0.4-0.2 0-0.5 0.1-0.7 0.1-0.4 0-0.8 0.2-1 0.5-0.2 0.3-0.4 0.6-0.7 0.9-0.1 0.1-0.3 0.2-0.4 0.4-0.2 0.2-0.4 0.2-0.6 0-0.1-0.1-0.2-0.1-0.3-0.2-0.1 0.1-0.2 0.2-0.2 0.3-0.1 0.2-0.2 0.4-0.3 0.7-0.1 0.3-0.3 0.6-0.5 0.8-0.1 0.1-0.1 0.1-0.2 0.2-0.1 0.2-0.4 0.3-0.6 0.3-0.2 0.2-0.4 0.5-0.5 0.7-0.1 0.2-0.2 0.4-0.3 0.7-0.1 0.1-0.1 0.3-0.2 0.4-0.1 0.2-0.1 0.3-0.1 0.5 0.1 0.3-0.1 0.4-0.4 0.5-0.2 0-0.2 0-0.3 0.2 0 0.3 0.1 0.5 0.2 0.8 0.1 0.1 0.2 0.3 0.2 0.4 0 0.2 0.1 0.3 0.3 0.4 0.1 0.1 0.2 0.2 0.3 0.2 0.1 0 0.1 0.1 0.2 0.1 0.1 0.1 0.2 0 0.2-0.1 0.1-0.3 0.2-0.6 0.2-0.9 0.1-0.4 0.1-0.7 0.2-1.1 0.1-0.2 0.2-0.3 0.3-0.4 0 0 0.1 0 0.2 0v0.1c-0.1 0.5-0.3 1.1-0.4 1.6-0.1 0.2-0.1 0.4-0.2 0.6 0 0.1-0.1 0.2-0.2 0.2-0.2 0.1-0.4 0.2-0.6 0.2-0.1 0-0.2 0-0.3 0-0.2-0.1-0.4-0.3-0.6-0.4-0.1-0.1-0.2-0.2-0.3-0.3-0.1-0.2-0.2-0.4-0.3-0.6-0.1-0.2-0.2-0.3-0.4-0.4-0.1-0.1-0.2-0.1-0.3-0.2-0.2-0.2-0.4-0.3-0.7-0.3-0.1 0-0.3 0-0.4 0-0.1 0-0.3 0.1-0.4 0.2-0.2 0.1-0.3 0.1-0.5 0-0.5-0.2-1-0.1-1.5 0.1-0.2 0.1-0.4 0.2-0.6 0.2-0.5 0-0.9 0-1.4 0-0.5 0-0.9-0.1-1.4-0.2-0.2 0-0.4 0-0.6 0-0.4 0.1-0.5 0.4-0.4 0.8 0.1 0.4 0.2 0.9 0.2 1.3 0 0.3 0 0.6 0 0.9 0 0.2 0 0.3 0 0.5 0 0.3-0.1 0.6-0.1 0.9-0.1 0.6-0.4 1.1-0.8 1.5-0.3 0.3-0.7 0.6-1.1 0.7-0.2 0.1-0.4 0.2-0.7 0.3-0.5 0.2-0.9 0.6-1.2 1.1-0.1 0.2-0.2 0.4-0.3 0.6-0.2 0.3-0.3 0.5-0.5 0.8-0.1 0.2-0.3 0.4-0.4 0.6-0.1 0.2-0.3 0.3-0.3 0.5-0.2 0.4-0.3 0.8-0.5 1.2-0.1 0.2-0.1 0.5-0.2 0.7-0.2 0.4-0.2 0.8-0.2 1.3 0 0.1 0 0.2 0 0.4 0 0.5-0.1 1.1-0.1 1.6 0 0.5 0 1 0.1 1.5 0 0.2 0 0.5 0 0.7 0 0.4 0.1 0.9 0.1 1.3 0 0.4 0 0.9 0.2 1.3v0.1c0.1 0.4 0.1 0.8 0.2 1.2 0 0.1 0 0.2 0.1 0.3 0.2 0.6 0.3 1.1 0.5 1.7 0.1 0.4 0.3 0.8 0.4 1.2 0.1 0.4 0.5 0.8 0.6 1.3v0c0.3 0.6 0.6 1.2 1 1.8 0.1 0.2 0.3 0.4 0.4 0.6 0.2 0.3 0.3 0.6 0.5 0.8 0.1 0.2 0.3 0.4 0.4 0.5 0.1 0.2 0.2 0.4 0.4 0.6 0.2 0.2 0.4 0.5 0.6 0.7 0.3 0.5 0.7 0.9 1.1 1.2 0.2 0.2 0.4 0.3 0.6 0.5 0.1 0.1 0.2 0.1 0.2 0.2 0.1 0.1 0.2 0.2 0.4 0.3 0.8 0.4 1.4 1 2.1 1.6 0.3 0.3 0.6 0.6 1 0.8 0.4 0.3 0.7 0.6 1.2 0.7 0 0 0.1 0 0.1 0.1 0.2 0.2 0.5 0.3 0.7 0.4 0.4 0.2 0.9 0.4 1.3 0.6 0.1 0.1 0.3 0.1 0.4 0.2 0.3 0.1 0.6 0.2 0.9 0.3 0.3 0.1 0.5 0.2 0.8 0.2h0.1c0.2 0.1 0.3 0.1 0.5 0 0.1 0 0.2 0 0.2 0.1 0 0.1 0.1 0.1 0.2 0.1 0.1 0 0.2 0 0.4 0 0.1-0.1 0.1-0.2 0.2-0.4 0.1 0.1 0.2 0.1 0.2 0.1 0.1 0.2 0.3 0.2 0.5 0.2h0.1c0.2 0 0.3 0 0.4-0.1 0-0.1 0.2-0.1 0.3-0.1 0.3 0.1 0.6 0.1 0.9 0.2 0.2 0.1 0.5 0.1 0.6-0.1 0.1-0.1 0.2-0.2 0.4-0.1 0.2 0.1 0.3 0.1 0.5 0 0.1 0 0.2 0 0.2 0 0.3 0.1 0.5 0.1 0.8 0.2 0.4 0.1 0.4 0.1 0.7-0.2 0.1-0.1 0.3-0.1 0.4 0 0.1 0.2 0.1 0.3 0.1 0.5 0.1 0 0.1 0 0.2-0.1 0-0.2 0.1-0.2 0.3-0.3 0.1 0.1 0.1 0.1 0.2 0.1 0.2 0.2 0.3 0.2 0.4-0.1 0-0.1 0-0.2 0.1-0.2 0.1 0 0.2 0.1 0.2 0.1 0.1 0.2 0.3 0.3 0.4 0.5 0.2 0.2 0.5 0.2 0.6 0 0.1-0.1 0.2-0.1 0.3-0.1 0-0.1 0-0.2 0-0.3 0.3 0.2 0.2 0.2 0.1 0.2zM37.4 23.8c0.3 0.1 0.5 0.1 0.6-0.1-0.2 0.1-0.4-0.1-0.6 0.1z" fill="#f9cc0b" fill-rule="nonzero" stroke="none" stroke-width="1" stroke-linecap="butt" stroke-linejoin="miter" stroke-miterlimit="10" stroke-dasharray="" stroke-dashoffset="0" font-family="none" font-weight="none" font-size="none" text-anchor="none" style="mix-blend-mode: normal" data-fill-palette-color="tertiary"></path></g><g transform="matrix(1,0,0,1,64,131.01319826059162)"><svg viewBox="0 0 192 97.97360347881676" height="97.97360347881676" width="192"><g><svg viewBox="0 0 192 97.97360347881676" height="97.97360347881676" width="192"><g transform="matrix(1,0,0,1,0,58.929843940808496)"><svg viewBox="0 0 192 39.04375953800825" height="39.04375953800825" width="192"><g id="textblocktransform"><svg viewBox="0 0 192 39.04375953800825" height="39.04375953800825" width="192" id="textblock"><g><svg viewBox="0 0 192 21.05833824395993" height="21.05833824395993" width="192"><g transform="matrix(1,0,0,1,0,0)"><svg width="192" viewBox="1.45 -36.83 339.37 37.23" height="21.05833824395993" data-palette-color="#f9cc0b"><path d="M23.88-32.52L22.7-30.23Q22.48-29.85 22.23-29.66 21.98-29.48 21.58-29.48L21.58-29.48Q21.15-29.48 20.59-29.9 20.03-30.33 19.16-30.84 18.3-31.35 17.09-31.78 15.88-32.2 14.15-32.2L14.15-32.2Q12.53-32.2 11.28-31.76 10.03-31.33 9.19-30.58 8.35-29.83 7.93-28.81 7.5-27.8 7.5-26.63L7.5-26.63Q7.5-25.13 8.24-24.14 8.97-23.15 10.19-22.45 11.4-21.75 12.94-21.24 14.48-20.73 16.09-20.18 17.7-19.63 19.24-18.94 20.78-18.25 21.99-17.2 23.2-16.15 23.94-14.63 24.68-13.1 24.68-10.88L24.68-10.88Q24.68-8.53 23.88-6.46 23.08-4.4 21.54-2.88 20-1.35 17.76-0.48 15.53 0.4 12.68 0.4L12.68 0.4Q9.2 0.4 6.34-0.86 3.48-2.13 1.45-4.28L1.45-4.28 2.85-6.58Q3.05-6.85 3.34-7.04 3.63-7.23 3.98-7.23L3.98-7.23Q4.5-7.23 5.18-6.66 5.85-6.1 6.86-5.43 7.88-4.75 9.31-4.19 10.75-3.63 12.83-3.63L12.83-3.63Q14.55-3.63 15.9-4.1 17.25-4.58 18.19-5.44 19.13-6.3 19.63-7.5 20.13-8.7 20.13-10.18L20.13-10.18Q20.13-11.8 19.39-12.84 18.65-13.88 17.45-14.58 16.25-15.28 14.71-15.76 13.18-16.25 11.56-16.76 9.95-17.28 8.41-17.95 6.88-18.63 5.68-19.7 4.48-20.78 3.74-22.39 3-24 3-26.38L3-26.38Q3-28.28 3.74-30.05 4.48-31.83 5.88-33.2 7.28-34.58 9.34-35.4 11.4-36.23 14.08-36.23L14.08-36.23Q17.07-36.23 19.55-35.27 22.03-34.33 23.88-32.52L23.88-32.52ZM37.82 0.4L37.82 0.4Q34.82 0.4 33.21-1.28 31.6-2.95 31.6-6.1L31.6-6.1 31.6-21.6 28.55-21.6Q28.15-21.6 27.87-21.84 27.6-22.08 27.6-22.58L27.6-22.58 27.6-24.35 31.75-24.88 32.77-32.7Q32.82-33.08 33.1-33.31 33.37-33.55 33.8-33.55L33.8-33.55 36.05-33.55 36.05-24.83 43.3-24.83 43.3-21.6 36.05-21.6 36.05-6.4Q36.05-4.8 36.82-4.03 37.6-3.25 38.82-3.25L38.82-3.25Q39.52-3.25 40.03-3.44 40.55-3.63 40.92-3.85 41.3-4.08 41.56-4.26 41.82-4.45 42.02-4.45L42.02-4.45Q42.37-4.45 42.65-4.03L42.65-4.03 43.95-1.9Q42.8-0.83 41.17-0.21 39.55 0.4 37.82 0.4ZM58.82-25.73L58.82-25.73Q61.1-25.73 63.02-24.96 64.95-24.2 66.34-22.76 67.75-21.33 68.53-19.21 69.32-17.1 69.32-14.4L69.32-14.4Q69.32-13.35 69.09-13 68.87-12.65 68.25-12.65L68.25-12.65 51.4-12.65Q51.45-10.25 52.05-8.47 52.65-6.7 53.7-5.51 54.75-4.33 56.2-3.74 57.65-3.15 59.45-3.15L59.45-3.15Q61.12-3.15 62.33-3.54 63.55-3.93 64.42-4.38 65.3-4.83 65.88-5.21 66.47-5.6 66.9-5.6L66.9-5.6Q67.45-5.6 67.75-5.18L67.75-5.18 69-3.55Q68.17-2.55 67.02-1.81 65.87-1.07 64.56-0.6 63.25-0.13 61.84 0.11 60.45 0.35 59.07 0.35L59.07 0.35Q56.45 0.35 54.23-0.54 52.02-1.43 50.41-3.14 48.8-4.85 47.9-7.38 47-9.9 47-13.18L47-13.18Q47-15.83 47.81-18.13 48.62-20.43 50.15-22.11 51.67-23.8 53.87-24.76 56.07-25.73 58.82-25.73ZM58.92-22.45L58.92-22.45Q55.7-22.45 53.85-20.59 52-18.73 51.55-15.43L51.55-15.43 65.32-15.43Q65.32-16.98 64.9-18.26 64.47-19.55 63.65-20.49 62.82-21.43 61.63-21.94 60.45-22.45 58.92-22.45ZM81.47 0L71.14-25.33 74.79-25.33Q75.32-25.33 75.67-25.05 76.02-24.78 76.17-24.4L76.17-24.4 82.59-8.1Q82.94-7.2 83.14-6.3 83.34-5.4 83.52-4.53L83.52-4.53Q83.72-5.4 83.94-6.3 84.17-7.2 84.52-8.1L84.52-8.1 91.02-24.4Q91.17-24.8 91.5-25.06 91.84-25.33 92.34-25.33L92.34-25.33 95.82-25.33 85.49 0 81.47 0ZM109.31-25.73L109.31-25.73Q111.59-25.73 113.51-24.96 115.44-24.2 116.84-22.76 118.24-21.33 119.03-19.21 119.81-17.1 119.81-14.4L119.81-14.4Q119.81-13.35 119.59-13 119.36-12.65 118.74-12.65L118.74-12.65 101.89-12.65Q101.94-10.25 102.54-8.47 103.14-6.7 104.19-5.51 105.24-4.33 106.69-3.74 108.14-3.15 109.94-3.15L109.94-3.15Q111.61-3.15 112.83-3.54 114.04-3.93 114.91-4.38 115.79-4.83 116.38-5.21 116.96-5.6 117.39-5.6L117.39-5.6Q117.94-5.6 118.24-5.18L118.24-5.18 119.49-3.55Q118.66-2.55 117.51-1.81 116.36-1.07 115.05-0.6 113.74-0.13 112.34 0.11 110.94 0.35 109.56 0.35L109.56 0.35Q106.94 0.35 104.73-0.54 102.51-1.43 100.9-3.14 99.29-4.85 98.39-7.38 97.49-9.9 97.49-13.18L97.49-13.18Q97.49-15.83 98.3-18.13 99.11-20.43 100.64-22.11 102.16-23.8 104.36-24.76 106.56-25.73 109.31-25.73ZM109.41-22.45L109.41-22.45Q106.19-22.45 104.34-20.59 102.49-18.73 102.04-15.43L102.04-15.43 115.81-15.43Q115.81-16.98 115.39-18.26 114.96-19.55 114.14-20.49 113.31-21.43 112.13-21.94 110.94-22.45 109.41-22.45ZM129.94 0L125.49 0 125.49-25.33 128.14-25.33Q129.09-25.33 129.34-24.4L129.34-24.4 129.69-21.65Q131.34-23.48 133.38-24.6 135.41-25.73 138.09-25.73L138.09-25.73Q140.16-25.73 141.75-25.04 143.34-24.35 144.4-23.09 145.46-21.83 146.01-20.05 146.56-18.28 146.56-16.13L146.56-16.13 146.56 0 142.11 0 142.11-16.13Q142.11-19 140.8-20.59 139.49-22.18 136.79-22.18L136.79-22.18Q134.81-22.18 133.1-21.23 131.39-20.28 129.94-18.65L129.94-18.65 129.94 0ZM181.26-12.95L181.26-12.95Q181.61-12.35 181.87-11.69 182.13-11.03 182.38-10.35L182.38-10.35Q182.63-11.05 182.91-11.69 183.18-12.33 183.53-12.98L183.53-12.98 195.66-35Q195.98-35.58 196.33-35.7 196.68-35.83 197.33-35.83L197.33-35.83 200.91-35.83 200.91 0 196.66 0 196.66-26.33Q196.66-26.85 196.68-27.45 196.71-28.05 196.76-28.68L196.76-28.68 184.48-6.28Q183.86-5.15 182.73-5.15L182.73-5.15 182.03-5.15Q180.91-5.15 180.28-6.28L180.28-6.28 167.73-28.75Q167.81-28.1 167.84-27.48 167.88-26.85 167.88-26.33L167.88-26.33 167.88 0 163.63 0 163.63-35.83 167.21-35.83Q167.86-35.83 168.21-35.7 168.56-35.58 168.88-35L168.88-35 181.26-12.95ZM219.18-25.73L219.18-25.73Q221.96-25.73 224.19-24.8 226.43-23.88 227.99-22.18 229.56-20.48 230.39-18.06 231.23-15.65 231.23-12.68L231.23-12.68Q231.23-9.68 230.39-7.28 229.56-4.88 227.99-3.18 226.43-1.48 224.19-0.56 221.96 0.35 219.18 0.35L219.18 0.35Q216.41 0.35 214.17-0.56 211.93-1.48 210.35-3.18 208.78-4.88 207.93-7.28 207.08-9.68 207.08-12.68L207.08-12.68Q207.08-15.65 207.93-18.06 208.78-20.48 210.35-22.18 211.93-23.88 214.17-24.8 216.41-25.73 219.18-25.73ZM219.18-3.13L219.18-3.13Q222.93-3.13 224.78-5.64 226.63-8.15 226.63-12.65L226.63-12.65Q226.63-17.18 224.78-19.7 222.93-22.23 219.18-22.23L219.18-22.23Q217.28-22.23 215.88-21.58 214.48-20.93 213.54-19.7 212.6-18.48 212.14-16.69 211.68-14.9 211.68-12.65L211.68-12.65Q211.68-10.4 212.14-8.63 212.6-6.85 213.54-5.64 214.48-4.42 215.88-3.78 217.28-3.13 219.18-3.13ZM257.2 0L254.55 0Q253.6 0 253.35-0.93L253.35-0.93 252.95-4Q251.33-2.02 249.24-0.84 247.15 0.35 244.45 0.35L244.45 0.35Q242.28 0.35 240.5-0.49 238.73-1.33 237.48-2.95 236.23-4.58 235.55-7 234.88-9.43 234.88-12.58L234.88-12.58Q234.88-15.38 235.63-17.79 236.38-20.2 237.79-21.98 239.2-23.75 241.23-24.76 243.25-25.78 245.83-25.78L245.83-25.78Q248.15-25.78 249.8-24.99 251.45-24.2 252.75-22.78L252.75-22.78 252.75-36.83 257.2-36.83 257.2 0ZM245.93-3.25L245.93-3.25Q248.1-3.25 249.74-4.25 251.38-5.25 252.75-7.08L252.75-7.08 252.75-19.33Q251.53-20.98 250.07-21.64 248.6-22.3 246.83-22.3L246.83-22.3Q243.28-22.3 241.38-19.78 239.48-17.25 239.48-12.58L239.48-12.58Q239.48-10.1 239.9-8.34 240.33-6.58 241.15-5.44 241.98-4.3 243.18-3.78 244.38-3.25 245.93-3.25ZM265.18-25.33L269.63-25.33 269.63 0 265.18 0 265.18-25.33ZM270.63-33.27L270.63-33.27Q270.63-32.63 270.36-32.06 270.1-31.5 269.66-31.06 269.23-30.63 268.65-30.38 268.08-30.13 267.43-30.13L267.43-30.13Q266.78-30.13 266.21-30.38 265.65-30.63 265.21-31.06 264.78-31.5 264.53-32.06 264.28-32.63 264.28-33.27L264.28-33.27Q264.28-33.93 264.53-34.51 264.78-35.1 265.21-35.54 265.65-35.98 266.21-36.23 266.78-36.48 267.43-36.48L267.43-36.48Q268.08-36.48 268.65-36.23 269.23-35.98 269.66-35.54 270.1-35.1 270.36-34.51 270.63-33.93 270.63-33.27ZM281.92 0L277.47 0 277.47-25.33 280.12-25.33Q281.07-25.33 281.32-24.4L281.32-24.4 281.65-21.8Q283.05-23.53 284.79-24.63 286.52-25.73 288.82-25.73L288.82-25.73Q291.4-25.73 292.99-24.3 294.57-22.88 295.27-20.45L295.27-20.45Q295.8-21.83 296.66-22.83 297.52-23.83 298.6-24.48 299.67-25.13 300.89-25.43 302.1-25.73 303.35-25.73L303.35-25.73Q305.35-25.73 306.91-25.09 308.47-24.45 309.56-23.23 310.65-22 311.22-20.21 311.8-18.43 311.8-16.13L311.8-16.13 311.8 0 307.35 0 307.35-16.13Q307.35-19.1 306.05-20.64 304.75-22.18 302.27-22.18L302.27-22.18Q301.17-22.18 300.19-21.79 299.2-21.4 298.45-20.65 297.7-19.9 297.26-18.76 296.82-17.63 296.82-16.13L296.82-16.13 296.82 0 292.37 0 292.37-16.13Q292.37-19.18 291.15-20.68 289.92-22.18 287.57-22.18L287.57-22.18Q285.92-22.18 284.51-21.29 283.1-20.4 281.92-18.88L281.92-18.88 281.92 0ZM328.77-25.73L328.77-25.73Q331.55-25.73 333.78-24.8 336.02-23.88 337.58-22.18 339.15-20.48 339.98-18.06 340.82-15.65 340.82-12.68L340.82-12.68Q340.82-9.68 339.98-7.28 339.15-4.88 337.58-3.18 336.02-1.48 333.78-0.56 331.55 0.35 328.77 0.35L328.77 0.35Q326 0.35 323.76-0.56 321.52-1.48 319.95-3.18 318.37-4.88 317.52-7.28 316.67-9.68 316.67-12.68L316.67-12.68Q316.67-15.65 317.52-18.06 318.37-20.48 319.95-22.18 321.52-23.88 323.76-24.8 326-25.73 328.77-25.73ZM328.77-3.13L328.77-3.13Q332.52-3.13 334.37-5.64 336.22-8.15 336.22-12.65L336.22-12.65Q336.22-17.18 334.37-19.7 332.52-22.23 328.77-22.23L328.77-22.23Q326.87-22.23 325.47-21.58 324.07-20.93 323.13-19.7 322.2-18.48 321.73-16.69 321.27-14.9 321.27-12.65L321.27-12.65Q321.27-10.4 321.73-8.63 322.2-6.85 323.13-5.64 324.07-4.42 325.47-3.78 326.87-3.13 328.77-3.13Z" opacity="1" transform="matrix(1,0,0,1,0,0)" fill="#f9cc0b" class="wordmark-text-0" data-fill-palette-color="primary" id="text-0"></path></svg></g></svg></g><g transform="matrix(1,0,0,1,65.52576366209749,26.029706503241016)"><svg viewBox="0 0 60.94847267580503 13.014053034767237" height="13.014053034767237" width="60.94847267580503"><g transform="matrix(1,0,0,1,0,0)"><svg width="60.94847267580503" viewBox="3.0999999999999996 -37.5 225.48000000000002 48.15" height="13.014053034767237" data-palette-color="#f9cc0b"><path d="M20.55-37.5L25.15-36.95 25.15 0 21.1 0 20.65-3.65Q19.35-1.65 17.4-0.53 15.45 0.6 13.05 0.6L13.05 0.6Q8.35 0.6 5.73-3.1 3.1-6.8 3.1-13.05L3.1-13.05Q3.1-17.1 4.35-20.25 5.6-23.4 7.95-25.18 10.3-26.95 13.45-26.95L13.45-26.95Q17.5-26.95 20.55-23.7L20.55-23.7 20.55-37.5ZM14.05-3.05Q16.15-3.05 17.65-4.03 19.15-5 20.55-6.95L20.55-6.95 20.55-19.85Q19.25-21.55 17.78-22.43 16.3-23.3 14.45-23.3L14.45-23.3Q11.4-23.3 9.73-20.75 8.05-18.2 8.05-13.15L8.05-13.15Q8.05-8.05 9.6-5.55 11.15-3.05 14.05-3.05L14.05-3.05ZM54.55-13.95Q54.55-12.8 54.45-11.6L54.45-11.6 37.65-11.6Q37.95-7.25 39.85-5.2 41.75-3.15 44.75-3.15L44.75-3.15Q46.65-3.15 48.25-3.7 49.85-4.25 51.6-5.45L51.6-5.45 53.6-2.7Q49.4 0.6 44.4 0.6L44.4 0.6Q38.9 0.6 35.82-3 32.75-6.6 32.75-12.9L32.75-12.9Q32.75-17 34.07-20.18 35.4-23.35 37.87-25.15 40.35-26.95 43.7-26.95L43.7-26.95Q48.95-26.95 51.75-23.5 54.55-20.05 54.55-13.95L54.55-13.95ZM50-15L50-15.3Q50-19.2 48.45-21.25 46.9-23.3 43.8-23.3L43.8-23.3Q38.15-23.3 37.65-15L37.65-15 50-15ZM76.4-26.35L81.25-26.35 72.3 0 66.75 0 57.65-26.35 62.65-26.35 69.55-4.1 76.4-26.35ZM106.39-13.95Q106.39-12.8 106.29-11.6L106.29-11.6 89.49-11.6Q89.79-7.25 91.69-5.2 93.59-3.15 96.59-3.15L96.59-3.15Q98.49-3.15 100.09-3.7 101.69-4.25 103.44-5.45L103.44-5.45 105.44-2.7Q101.24 0.6 96.24 0.6L96.24 0.6Q90.74 0.6 87.67-3 84.59-6.6 84.59-12.9L84.59-12.9Q84.59-17 85.92-20.18 87.24-23.35 89.72-25.15 92.19-26.95 95.54-26.95L95.54-26.95Q100.79-26.95 103.59-23.5 106.39-20.05 106.39-13.95L106.39-13.95ZM101.84-15L101.84-15.3Q101.84-19.2 100.29-21.25 98.74-23.3 95.64-23.3L95.64-23.3Q89.99-23.3 89.49-15L89.49-15 101.84-15ZM118.99 0.6Q116.44 0.6 114.97-0.93 113.49-2.45 113.49-5.2L113.49-5.2 113.49-36.95 118.09-37.5 118.09-5.3Q118.09-4.2 118.47-3.7 118.84-3.2 119.74-3.2L119.74-3.2Q120.69-3.2 121.44-3.5L121.44-3.5 122.64-0.3Q120.99 0.6 118.99 0.6L118.99 0.6ZM138.29-26.95Q143.84-26.95 146.91-23.25 149.99-19.55 149.99-13.2L149.99-13.2Q149.99-9.1 148.59-5.98 147.19-2.85 144.54-1.13 141.89 0.6 138.24 0.6L138.24 0.6Q132.69 0.6 129.59-3.1 126.49-6.8 126.49-13.15L126.49-13.15Q126.49-17.25 127.89-20.38 129.29-23.5 131.94-25.23 134.59-26.95 138.29-26.95L138.29-26.95ZM138.29-23.25Q131.44-23.25 131.44-13.15L131.44-13.15Q131.44-3.1 138.24-3.1L138.24-3.1Q145.04-3.1 145.04-13.2L145.04-13.2Q145.04-23.25 138.29-23.25L138.29-23.25ZM169.69-26.95Q174.74-26.95 177.09-23.35 179.44-19.75 179.44-13.2L179.44-13.2Q179.44-7 176.74-3.2 174.04 0.6 169.09 0.6L169.09 0.6Q164.69 0.6 162.19-2.4L162.19-2.4 162.19 10.1 157.59 10.65 157.59-26.35 161.54-26.35 161.89-22.8Q163.34-24.8 165.39-25.88 167.44-26.95 169.69-26.95L169.69-26.95ZM167.99-3.15Q174.49-3.15 174.49-13.2L174.49-13.2Q174.49-23.3 168.54-23.3L168.54-23.3Q166.59-23.3 164.99-22.15 163.39-21 162.19-19.2L162.19-19.2 162.19-6.35Q163.19-4.8 164.69-3.98 166.19-3.15 167.99-3.15L167.99-3.15ZM207.18-13.95Q207.18-12.8 207.08-11.6L207.08-11.6 190.28-11.6Q190.58-7.25 192.48-5.2 194.38-3.15 197.38-3.15L197.38-3.15Q199.28-3.15 200.88-3.7 202.48-4.25 204.23-5.45L204.23-5.45 206.23-2.7Q202.03 0.6 197.03 0.6L197.03 0.6Q191.53 0.6 188.46-3 185.38-6.6 185.38-12.9L185.38-12.9Q185.38-17 186.71-20.18 188.03-23.35 190.51-25.15 192.98-26.95 196.33-26.95L196.33-26.95Q201.58-26.95 204.38-23.5 207.18-20.05 207.18-13.95L207.18-13.95ZM202.63-15L202.63-15.3Q202.63-19.2 201.08-21.25 199.53-23.3 196.43-23.3L196.43-23.3Q190.78-23.3 190.28-15L190.28-15 202.63-15ZM225.98-26.95Q227.38-26.95 228.58-26.65L228.58-26.65 227.73-22.15Q226.53-22.45 225.43-22.45L225.43-22.45Q222.98-22.45 221.48-20.65 219.98-18.85 219.13-15.05L219.13-15.05 219.13 0 214.53 0 214.53-26.35 218.48-26.35 218.93-21Q219.98-23.95 221.78-25.45 223.58-26.95 225.98-26.95L225.98-26.95Z" opacity="1" transform="matrix(1,0,0,1,0,0)" fill="#f9cc0b" class="slogan-text-1" data-fill-palette-color="secondary" id="text-1"></path></svg></g></svg></g></svg></g></svg></g><g transform="matrix(1,0,0,1,59.67454664581971,0)"><svg viewBox="0 0 72.65090670836058 53.95847568152741" height="53.95847568152741" width="72.65090670836058"><g><svg xmlns="http://www.w3.org/2000/svg" xmlns:xlink="http://www.w3.org/1999/xlink" version="1.1" x="0" y="0" viewBox="7.5 18.435 85.001 63.131" enable-background="new 0 0 100 100" xml:space="preserve" height="53.95847568152741" width="72.65090670836058" class="icon-icon-0" data-fill-palette-color="accent" id="icon-0"><g fill="#f9f9f9" data-fill-palette-color="accent"><path d="M89.405 18.435H10.595c-1.706 0-3.095 1.389-3.095 3.095v56.941c0 1.706 1.389 3.095 3.095 3.095h78.811c1.707 0 3.095-1.389 3.095-3.095V77.14 32.027 21.529C92.5 19.823 91.112 18.435 89.405 18.435zM10.595 19.673h78.811c1.023 0 1.857 0.833 1.857 1.856v9.075c-0.068-0.01-0.136-0.021-0.207-0.021H8.951c-0.073 0-0.143 0.011-0.213 0.021v-9.076C8.738 20.506 9.571 19.673 10.595 19.673zM91.263 77.14c0 0.114-0.093 0.206-0.207 0.206H8.951c-0.113 0-0.206-0.092-0.206-0.206V32.027c0-0.113 0.093-0.206 0.206-0.206h82.104c0.114 0 0.207 0.093 0.207 0.206V77.14zM89.405 80.327H10.595c-0.992 0-1.798-0.784-1.848-1.764 0.067 0.01 0.135 0.021 0.204 0.021h82.104c0.068 0 0.133-0.011 0.197-0.02C91.202 79.544 90.396 80.327 89.405 80.327z" fill="#f9f9f9" data-fill-palette-color="accent"></path><path d="M28.178 27.787c1.45 0 2.63-1.18 2.63-2.63 0-1.451-1.18-2.631-2.63-2.631s-2.631 1.18-2.631 2.631C25.547 26.607 26.728 27.787 28.178 27.787zM28.178 23.765c0.768 0 1.393 0.624 1.393 1.393 0 0.768-0.625 1.393-1.393 1.393-0.769 0-1.393-0.625-1.393-1.393C26.785 24.389 27.409 23.765 28.178 23.765z" fill="#f9f9f9" data-fill-palette-color="accent"></path><path d="M21.458 27.787c1.451 0 2.631-1.18 2.631-2.63 0-1.451-1.18-2.631-2.631-2.631-1.45 0-2.63 1.18-2.63 2.631C18.828 26.607 20.008 27.787 21.458 27.787zM21.458 23.765c0.769 0 1.393 0.624 1.393 1.393 0 0.768-0.624 1.393-1.393 1.393-0.768 0-1.393-0.625-1.393-1.393C20.065 24.389 20.69 23.765 21.458 23.765z" fill="#f9f9f9" data-fill-palette-color="accent"></path><path d="M14.738 27.787c1.451 0 2.631-1.18 2.631-2.63 0-1.451-1.18-2.631-2.631-2.631-1.45 0-2.63 1.18-2.63 2.631C12.108 26.607 13.288 27.787 14.738 27.787zM14.738 23.765c0.769 0 1.393 0.624 1.393 1.393 0 0.768-0.624 1.393-1.393 1.393-0.768 0-1.393-0.625-1.393-1.393C13.346 24.389 13.971 23.765 14.738 23.765z" fill="#f9f9f9" data-fill-palette-color="accent"></path></g><path d="M26.598 65.915c-0.624 0-1.395-0.429-2.289-1.276-1.605-1.519-2.16-2.371-1.2-3.405l8.79-8.811-8.774-8.782c-0.676-0.676-0.57-1.195-0.401-1.57 0.242-0.544 0.814-1.117 1.479-1.781 0.829-0.829 1.542-1.542 2.241-1.542 0.342 0 0.679 0.172 1.033 0.526l11.769 11.755c0.311 0.254 0.521 0.659 0.564 1.134 0.048 0.537-0.134 1.152-0.452 1.533L27.53 65.514C27.243 65.787 26.941 65.915 26.598 65.915zM23.846 42.57c-0.009 0 0.027 0.068 0.154 0.194l9.211 9.221c0.241 0.242 0.241 0.633 0 0.875L24 62.093c-0.093 0.1-0.125 0.147-0.133 0.166 0.012 0.047 0.125 0.377 1.292 1.48 0.979 0.927 1.42 0.938 1.438 0.938v0.619l0.01-0.62c-0.001 0.001-0.001 0.001-0.001 0.001-0.003 0 0.02-0.012 0.061-0.05l11.777-11.767c0.061-0.077 0.151-0.357 0.131-0.589-0.013-0.145-0.063-0.246-0.162-0.328L26.601 40.148c-0.144-0.143-0.215-0.171-0.215-0.171-0.182 0.06-0.886 0.764-1.307 1.184-0.531 0.532-1.077 1.078-1.227 1.413C23.85 42.571 23.848 42.57 23.846 42.57z" fill="#f9f9f9" data-fill-palette-color="accent"></path><path d="M55.834 71.436H40.498c-1.594 0-1.92-1.234-1.92-3.088s0.326-3.088 1.92-3.088h15.336c1.503 0 1.787 1.085 1.787 3.088C57.621 70.396 57.346 71.436 55.834 71.436zM40.498 66.497c-0.366 0-0.683 0-0.683 1.851s0.316 1.851 0.683 1.851h15.336c0.354 0 0.55 0 0.55-1.851s-0.219-1.851-0.55-1.851H40.498z" fill="#f9f9f9" data-fill-palette-color="accent"></path></svg></g></svg></g><g></g></svg></g></svg></g></svg></g><defs></defs></svg><rect width="320" height="360" fill="none" stroke="none" visibility="hidden"></rect></g></svg></g></svg>