<svg xmlns="http://www.w3.org/2000/svg" version="1.1" xmlns:xlink="http://www.w3.org/1999/xlink" xmlns:svgjs="http://svgjs.dev/svgjs" width="2000" height="1500" viewBox="0 0 2000 1500"><rect width="2000" height="1500" fill="#000000"></rect><g transform="matrix(0.75,0,0,0.75,249.47691198912935,122.7582995951417)"><svg viewBox="0 0 295 247" data-background-color="#293040" preserveAspectRatio="xMidYMid meet" height="1674" width="2000" xmlns="http://www.w3.org/2000/svg" xmlns:xlink="http://www.w3.org/1999/xlink"><g id="tight-bounds" transform="matrix(1,0,0,1,0.10287397547122623,-0.09999999999999432)"><svg viewBox="0 0 294.79425204905755 247.2" height="247.2" width="294.79425204905755"><g><svg viewBox="0 0 395.52 331.66367159604386" height="247.2" width="294.79425204905755"><g transform="matrix(1,0,0,1,0,242.6006451874634)"><svg viewBox="0 0 395.52 89.06302640858044" height="89.06302640858044" width="395.52"><g id="textblocktransform"><svg viewBox="0 0 395.52 89.06302640858044" height="89.06302640858044" width="395.52" id="textblock"><g><rect width="120.24498024116276" height="4.331966777289085" y="72.05381374548794" fill="#ffffff" data-fill-palette-color="tertiary"></rect><rect width="120.24498024116276" height="4.331966777289085" y="72.05381374548794" x="275.27501975883723" fill="#ffffff" data-fill-palette-color="tertiary"></rect></g><g><svg viewBox="0 0 395.52 48.036340694006306" height="48.036340694006306" width="395.52"><g transform="matrix(1,0,0,1,0,0)"><svg width="395.52" viewBox="2 -38.15 316.97 38.5" height="48.036340694006306" data-palette-color="#dee0e4"><path d="M24.65-25.2L20.9-25.2Q22.4-27.45 22.4-29.4 22.4-31.35 21.3-32.5 20.2-33.65 18.4-33.65 16.6-33.65 15.5-32.77 14.4-31.9 14.4-30.03 14.4-28.15 17-23.3 19.6-18.45 20.3-17.05L20.3-17.05Q22.2-13.25 22.2-9.7L22.2-9.7Q22.2-5.25 18.98-2.48 15.75 0.3 11.38 0.3 7 0.3 4.5-2.43 2-5.15 2-8.8L2-8.8Q2-15.55 10.35-19.95L10.35-19.95Q6.95-26.65 6.95-29.3L6.95-29.3Q6.95-33 9.93-35.58 12.9-38.15 17.23-38.15 21.55-38.15 23.85-35.95 26.15-33.75 26.15-30.35L26.15-30.35Q26.15-28.1 24.65-25.2L24.65-25.2ZM7.8-5.7Q9.15-4.25 11.08-4.25 13-4.25 14.08-5.38 15.15-6.5 15.15-8.7L15.15-8.7Q15.15-10.7 13.6-13.6L13.6-13.6Q13.4-14 12.85-15.08 12.3-16.15 12.05-16.6L12.05-16.6Q6.45-13.7 6.45-9.3L6.45-9.3Q6.45-7.05 7.8-5.7L7.8-5.7ZM37.35-34.8L37.35-34.8Q37.35-34.5 36-24.05L36-24.05 43.35-24.05 43.35-20.2 35.5-20.2 35.35-18.95Q41.2-14.05 41.2-8.25L41.2-8.25Q41.2-3.7 38.87-1.7 36.55 0.3 33.3 0.3 30.05 0.3 28.55-1.43 27.05-3.15 27.05-5.6L27.05-5.6Q27.05-6.15 27.15-6.8L27.15-6.8 28.7-20.1 28.5-20.2 24.45-20.2Q24.4-20.7 24.4-21.83 24.4-22.95 24.85-24.05L24.85-24.05 29.15-24.05 30.75-37.65Q31.8-38.05 33.55-38.05L33.55-38.05Q37.35-38.05 37.35-34.8ZM37.85-8.3L37.85-8.3Q37.85-11.75 34.85-15.1L34.85-15.1Q33.95-7.65 33.95-6.5L33.95-6.5Q33.95-4.25 35.4-4.25L35.4-4.25Q36.45-4.25 37.15-5.23 37.85-6.2 37.85-8.3ZM52.55-11.2Q55.64-11.85 57.17-13.7 58.7-15.55 58.7-17.28 58.7-19 57.77-19.63 56.84-20.25 55.74-20.25L55.74-20.25Q53.39-20.25 51.62-17.63 49.84-15 49.84-11.38 49.84-7.75 51.57-5.98 53.3-4.2 55.84-4.2L55.84-4.2Q59.59-4.2 63.05-6.8 66.5-9.4 68.64-13.6L68.64-13.6Q69.75-12.55 70.64-11L70.64-11Q69-7.25 64.8-3.65L64.8-3.65Q62.7-1.9 59.82-0.8 56.95 0.3 53.89 0.3L53.89 0.3Q48.89 0.3 45.99-2.75L45.99-2.75Q42.89-6.05 42.89-11.2 42.89-16.35 46.77-20.2 50.64-24.05 56.05-24.05L56.05-24.05Q59.89-24.05 62.3-22.38 64.69-20.7 64.75-17.85L64.75-17.85Q64.75-14 61.67-11.6 58.59-9.2 53.24-8.25L53.24-8.25 52.55-11.2ZM85.37-8.95Q83.79-4.9 80.87-2.33 77.94 0.25 74.19 0.25 70.44 0.25 68.57-2.23 66.69-4.7 66.69-7.9L66.69-7.9Q66.69-8.55 66.74-9.2L66.74-9.2 68.44-23.45Q70.04-24.05 71.84-24.05L71.84-24.05Q75.14-24.05 75.14-21.6L75.14-21.6Q75.14-21.5 74.32-14.93 73.49-8.35 73.49-7.3L73.49-7.3Q73.49-4.45 76.24-4.45L76.24-4.45Q78.59-4.45 80.19-7.1L80.19-7.1Q82.99-11.9 83.14-17.95L83.14-17.95 82.69-17.95Q80.59-17.95 79.49-18.9L79.49-18.9Q78.24-20 78.24-21.55 78.24-23.1 79.19-24.05L79.19-24.05Q80.34-25.05 81.94-25.05L81.94-25.05Q85.74-25.05 86.69-21.1L86.69-21.1Q88.19-21.3 88.84-21.5L88.84-21.5 88.84-18.65 86.99-18.35 86.99-17.5Q86.94-13 85.37-8.95ZM81.09-21.55L81.09-21.55Q81.09-20.7 82.54-20.7L82.54-20.7Q82.69-20.7 82.84-20.7L82.84-20.7Q82.49-22.05 81.79-22.05 81.09-22.05 81.09-21.55ZM98.54-11.2Q101.64-11.85 103.17-13.7 104.69-15.55 104.69-17.28 104.69-19 103.77-19.63 102.84-20.25 101.74-20.25L101.74-20.25Q99.39-20.25 97.62-17.63 95.84-15 95.84-11.38 95.84-7.75 97.56-5.98 99.29-4.2 101.84-4.2L101.84-4.2Q105.59-4.2 109.04-6.8 112.49-9.4 114.64-13.6L114.64-13.6Q115.74-12.55 116.64-11L116.64-11Q114.99-7.25 110.79-3.65L110.79-3.65Q108.69-1.9 105.81-0.8 102.94 0.3 99.89 0.3L99.89 0.3Q94.89 0.3 91.99-2.75L91.99-2.75Q88.89-6.05 88.89-11.2 88.89-16.35 92.77-20.2 96.64-24.05 102.04-24.05L102.04-24.05Q105.89-24.05 108.29-22.38 110.69-20.7 110.74-17.85L110.74-17.85Q110.74-14 107.67-11.6 104.59-9.2 99.24-8.25L99.24-8.25 98.54-11.2ZM126.79-5.6L126.79-5.6 127.99-16.75Q127.99-18.1 127.29-19 126.59-19.9 124.96-19.9 123.34-19.9 122.21-18.48 121.09-17.05 120.79-14.9L120.79-14.9Q118.99-1.2 118.89 0L118.89 0 112.14 0 114.89-23.55Q116.99-24.1 118.09-24.1L118.09-24.1Q121.44-24.1 121.59-21.65L121.59-21.65Q124.04-24.05 127.46-24.05 130.89-24.05 132.84-22.35 134.79-20.65 134.79-18.05L134.79-18.05Q134.79-17.35 134.49-15.4L134.49-15.4Q133.34-7.8 133.34-6.55L133.34-6.55Q133.34-4.25 134.89-4.25L134.89-4.25Q138.29-4.25 140.04-11.35L140.04-11.35Q141.74-9.55 142.09-8.5L142.09-8.5Q139.44 0.3 132.89 0.3L132.89 0.3Q129.79 0.3 128.29-1.6 126.79-3.5 126.79-5.6ZM180.83-37.45L180.83-37.7Q181.88-38.1 183.78-38.1 185.68-38.1 187.18-37.85L187.18-37.85Q185.63-26.35 184.76-17.03 183.88-7.7 183.81-7.2 183.73-6.7 183.73-6.3L183.73-6.3Q183.78-5 184.98-5L184.98-5Q187.98-5 193.33-11.9L193.33-11.9Q194.28-9.25 194.43-8.35L194.43-8.35Q192.03-4.55 188.66-2.13 185.28 0.3 182.28 0.3 179.28 0.3 178.13-1.25 176.98-2.8 176.98-4.7L176.98-4.7Q176.98-5.15 177.11-6.45 177.23-7.75 179.08-22.65L179.08-22.65 170.88-3.7 166.63-3.7 164.18-22.35 160.68-6.85Q159.83-3.15 157.91-1.4 155.98 0.35 153.68 0.35 151.38 0.35 149.93-1L149.93-1Q148.38-2.45 148.38-5.1L148.38-5.1Q148.38-10.4 156.58-14.15L156.58-14.15Q161.03-35.5 161.38-37.8L161.38-37.8Q162.58-38.1 164.61-38.1 166.63-38.1 167.38-38L167.38-38 167.73-38 170.83-14.75 180.83-37.45ZM151.93-5.95L151.93-5.95Q151.93-4.35 153.18-4.35L153.18-4.35Q154.03-4.35 154.58-5.7L154.58-5.7Q155.28-7.35 155.73-10.05L155.73-10.05Q151.93-7.9 151.93-5.95ZM203.08-24.05L203.08-24.05Q207.68-24.05 210.76-21.1 213.83-18.15 213.83-13.9L213.83-13.9Q213.83-7.45 210.06-3.58 206.28 0.3 200.93 0.3 195.58 0.3 192.46-2.75 189.33-5.8 189.33-10.3L189.33-10.3Q189.33-16.6 193.18-20.3L193.18-20.3Q197.08-24.05 203.08-24.05ZM202.11-20Q199.73-20 198.13-17.3 196.53-14.6 196.38-10.5L196.38-10.5Q196.38-7.6 197.56-5.7 198.73-3.8 201.13-3.8 203.53-3.8 205.16-6.45 206.78-9.1 206.78-12.5 206.78-15.9 205.63-17.9L205.63-17.9Q204.48-20 202.11-20ZM235.08-36.05Q235.43-36.9 236.65-37.48 237.88-38.05 239.6-38.05 241.33-38.05 242.18-37.55L242.18-37.55Q241.68-33.65 240.58-25.3L240.58-25.3Q238.28-7.85 238.28-6.08 238.28-4.3 239.78-4.3L239.78-4.3Q241.08-4.3 242.48-5.93 243.88-7.55 245.03-11.25L245.03-11.25Q246.43-9.9 246.98-8.3L246.98-8.3Q245.18-2.35 241.33-0.6L241.33-0.6Q239.58 0.25 238.03 0.25L238.03 0.25Q233.58 0.25 232.08-2.95L232.08-2.95Q229.48 0.3 225.43 0.3 221.38 0.3 218.6-2.45 215.83-5.2 215.83-9.7L215.83-9.7Q215.83-16.25 219.68-20.15 223.53-24.05 229.43-24.05L229.43-24.05Q229.58-24.05 229.73-24.05L229.73-24.05Q231.78-24.05 233.58-23.45L233.58-23.45 235.08-36.05ZM230.18-20.15L230.18-20.15Q226.98-20.15 225.1-17.73 223.23-15.3 222.88-10.5L222.88-10.5Q222.83-10.05 222.83-9.65L222.83-9.65Q222.83-7.2 224-5.75 225.18-4.3 227.03-4.3L227.03-4.3Q230.18-4.3 231.78-8.75L231.78-8.75 233.08-19.5Q231.43-20.15 230.18-20.15ZM247.18-36.83Q248.33-38 249.98-38 251.63-38 252.8-36.83 253.98-35.65 253.98-34 253.98-32.35 252.8-31.2 251.63-30.05 249.98-30.05 248.33-30.05 247.18-31.2 246.03-32.35 246.03-34 246.03-35.65 247.18-36.83ZM245.13-22.15Q245.63-23.05 247.03-23.53 248.43-24 249.8-24 251.18-24 252.23-23.65L252.23-23.65Q250.28-8.6 250.28-8.45L250.28-8.45Q250.03-7.45 250.03-6.78 250.03-6.1 250.13-5.6L250.13-5.6Q250.33-4.3 251.95-4.3 253.58-4.3 254.95-6.43 256.33-8.55 257.03-11.25L257.03-11.25Q257.38-11.05 258.13-10.05 258.88-9.05 259.03-8.55L259.03-8.55Q258.03-4.55 255.63-2.1L255.63-2.1Q253.23 0.35 249.88 0.35 246.53 0.35 244.9-1.3 243.28-2.95 243.28-5.55L243.28-5.55Q243.28-6.1 243.33-6.7L243.33-6.7 245.13-22.15ZM275.47 0L269.02 0 270.92-16.6Q270.92-18 270.25-18.93 269.57-19.85 267.87-19.85 266.17-19.85 265.07-18.23 263.97-16.6 263.67-14.8L263.67-14.8Q261.92-2.35 261.72 0L261.72 0 255.02 0 257.77-23.5Q259.87-24.05 260.97-24.05L260.97-24.05Q264.12-24.05 264.42-21.95L264.42-21.95Q266.87-24.05 269.77-24.05L269.77-24.05Q275.57-24.05 277.17-20.6L277.17-20.6Q279.62-24.1 284.17-24.1L284.17-24.1Q287.52-24.1 289.47-22.38 291.42-20.65 291.42-18.05L291.42-18.05Q291.42-17.3 291.12-15.4L291.12-15.4Q289.97-7.9 289.97-6.6L289.97-6.6Q289.97-4.25 291.52-4.25L291.52-4.25Q292.82-4.25 294.3-5.98 295.77-7.7 296.67-11.3L296.67-11.3Q298.37-9.5 298.72-8.45L298.72-8.45Q296.12 0.25 289.52 0.25L289.52 0.25Q286.42 0.25 284.92-1.65 283.42-3.55 283.42-5.65L283.42-5.65 284.62-16.7Q284.62-18.05 283.92-18.95 283.22-19.85 281.7-19.85 280.17-19.85 279.02-18.7 277.87-17.55 277.42-15.75L277.42-15.75Q275.92-3.05 275.47 0L275.47 0ZM308.22-24.05L308.22-24.05Q312.82-24.05 315.9-21.1 318.97-18.15 318.97-13.9L318.97-13.9Q318.97-7.45 315.2-3.58 311.42 0.3 306.07 0.3 300.72 0.3 297.6-2.75 294.47-5.8 294.47-10.3L294.47-10.3Q294.47-16.6 298.32-20.3L298.32-20.3Q302.22-24.05 308.22-24.05ZM307.25-20Q304.87-20 303.27-17.3 301.67-14.6 301.52-10.5L301.52-10.5Q301.52-7.6 302.7-5.7 303.87-3.8 306.27-3.8 308.67-3.8 310.3-6.45 311.92-9.1 311.92-12.5 311.92-15.9 310.77-17.9L310.77-17.9Q309.62-20 307.25-20Z" opacity="1" transform="matrix(1,0,0,1,0,0)" fill="#ffffff" class="wordmark-text-0" data-fill-palette-color="primary" id="text-0"></path></svg></g></svg></g><g transform="matrix(1,0,0,1,120.24498024116276,59.37656785968454)"><svg viewBox="0 0 155.03003951767445 29.686458548895896" height="29.686458548895896" width="155.03003951767445"><g transform="matrix(1,0,0,1,8,0)"><svg width="139.03003951767445" viewBox="3.0999999999999996 -37.5 225.48000000000002 48.15" height="29.686458548895896" data-palette-color="#dee0e4"><path d="M20.55-37.5L25.15-36.95 25.15 0 21.1 0 20.65-3.65Q19.35-1.65 17.4-0.53 15.45 0.6 13.05 0.6L13.05 0.6Q8.35 0.6 5.73-3.1 3.1-6.8 3.1-13.05L3.1-13.05Q3.1-17.1 4.35-20.25 5.6-23.4 7.95-25.18 10.3-26.95 13.45-26.95L13.45-26.95Q17.5-26.95 20.55-23.7L20.55-23.7 20.55-37.5ZM14.05-3.05Q16.15-3.05 17.65-4.03 19.15-5 20.55-6.95L20.55-6.95 20.55-19.85Q19.25-21.55 17.78-22.43 16.3-23.3 14.45-23.3L14.45-23.3Q11.4-23.3 9.73-20.75 8.05-18.2 8.05-13.15L8.05-13.15Q8.05-8.05 9.6-5.55 11.15-3.05 14.05-3.05L14.05-3.05ZM54.55-13.95Q54.55-12.8 54.45-11.6L54.45-11.6 37.65-11.6Q37.95-7.25 39.85-5.2 41.75-3.15 44.75-3.15L44.75-3.15Q46.65-3.15 48.25-3.7 49.85-4.25 51.6-5.45L51.6-5.45 53.6-2.7Q49.4 0.6 44.4 0.6L44.4 0.6Q38.9 0.6 35.82-3 32.75-6.6 32.75-12.9L32.75-12.9Q32.75-17 34.07-20.18 35.4-23.35 37.87-25.15 40.35-26.95 43.7-26.95L43.7-26.95Q48.95-26.95 51.75-23.5 54.55-20.05 54.55-13.95L54.55-13.95ZM50-15L50-15.3Q50-19.2 48.45-21.25 46.9-23.3 43.8-23.3L43.8-23.3Q38.15-23.3 37.65-15L37.65-15 50-15ZM76.4-26.35L81.25-26.35 72.3 0 66.75 0 57.65-26.35 62.65-26.35 69.55-4.1 76.4-26.35ZM106.39-13.95Q106.39-12.8 106.29-11.6L106.29-11.6 89.49-11.6Q89.79-7.25 91.69-5.2 93.59-3.15 96.59-3.15L96.59-3.15Q98.49-3.15 100.09-3.7 101.69-4.25 103.44-5.45L103.44-5.45 105.44-2.7Q101.24 0.6 96.24 0.6L96.24 0.6Q90.74 0.6 87.67-3 84.59-6.6 84.59-12.9L84.59-12.9Q84.59-17 85.92-20.18 87.24-23.35 89.72-25.15 92.19-26.95 95.54-26.95L95.54-26.95Q100.79-26.95 103.59-23.5 106.39-20.05 106.39-13.95L106.39-13.95ZM101.84-15L101.84-15.3Q101.84-19.2 100.29-21.25 98.74-23.3 95.64-23.3L95.64-23.3Q89.99-23.3 89.49-15L89.49-15 101.84-15ZM118.99 0.6Q116.44 0.6 114.97-0.93 113.49-2.45 113.49-5.2L113.49-5.2 113.49-36.95 118.09-37.5 118.09-5.3Q118.09-4.2 118.47-3.7 118.84-3.2 119.74-3.2L119.74-3.2Q120.69-3.2 121.44-3.5L121.44-3.5 122.64-0.3Q120.99 0.6 118.99 0.6L118.99 0.6ZM138.29-26.95Q143.84-26.95 146.91-23.25 149.99-19.55 149.99-13.2L149.99-13.2Q149.99-9.1 148.59-5.98 147.19-2.85 144.54-1.13 141.89 0.6 138.24 0.6L138.24 0.6Q132.69 0.6 129.59-3.1 126.49-6.8 126.49-13.15L126.49-13.15Q126.49-17.25 127.89-20.38 129.29-23.5 131.94-25.23 134.59-26.95 138.29-26.95L138.29-26.95ZM138.29-23.25Q131.44-23.25 131.44-13.15L131.44-13.15Q131.44-3.1 138.24-3.1L138.24-3.1Q145.04-3.1 145.04-13.2L145.04-13.2Q145.04-23.25 138.29-23.25L138.29-23.25ZM169.69-26.95Q174.74-26.95 177.09-23.35 179.44-19.75 179.44-13.2L179.44-13.2Q179.44-7 176.74-3.2 174.04 0.6 169.09 0.6L169.09 0.6Q164.69 0.6 162.19-2.4L162.19-2.4 162.19 10.1 157.59 10.65 157.59-26.35 161.54-26.35 161.89-22.8Q163.34-24.8 165.39-25.88 167.44-26.95 169.69-26.95L169.69-26.95ZM167.99-3.15Q174.49-3.15 174.49-13.2L174.49-13.2Q174.49-23.3 168.54-23.3L168.54-23.3Q166.59-23.3 164.99-22.15 163.39-21 162.19-19.2L162.19-19.2 162.19-6.35Q163.19-4.8 164.69-3.98 166.19-3.15 167.99-3.15L167.99-3.15ZM207.18-13.95Q207.18-12.8 207.08-11.6L207.08-11.6 190.28-11.6Q190.58-7.25 192.48-5.2 194.38-3.15 197.38-3.15L197.38-3.15Q199.28-3.15 200.88-3.7 202.48-4.25 204.23-5.45L204.23-5.45 206.23-2.7Q202.03 0.6 197.03 0.6L197.03 0.6Q191.53 0.6 188.46-3 185.38-6.6 185.38-12.9L185.38-12.9Q185.38-17 186.71-20.18 188.03-23.35 190.51-25.15 192.98-26.95 196.33-26.95L196.33-26.95Q201.58-26.95 204.38-23.5 207.18-20.05 207.18-13.95L207.18-13.95ZM202.63-15L202.63-15.3Q202.63-19.2 201.08-21.25 199.53-23.3 196.43-23.3L196.43-23.3Q190.78-23.3 190.28-15L190.28-15 202.63-15ZM225.98-26.95Q227.38-26.95 228.58-26.65L228.58-26.65 227.73-22.15Q226.53-22.45 225.43-22.45L225.43-22.45Q222.98-22.45 221.48-20.65 219.98-18.85 219.13-15.05L219.13-15.05 219.13 0 214.53 0 214.53-26.35 218.48-26.35 218.93-21Q219.98-23.95 221.78-25.45 223.58-26.95 225.98-26.95L225.98-26.95Z" opacity="1" transform="matrix(1,0,0,1,0,0)" fill="#ffffff" class="slogan-text-1" data-fill-palette-color="secondary" id="text-1"></path></svg></g></svg></g></svg></g></svg></g><g transform="matrix(1,0,0,1,87.79990457194651,0)"><svg viewBox="0 0 219.92019085610696 219.92019085610696" height="219.92019085610696" width="219.92019085610696"><g><svg></svg></g><g id="icon-0"><svg viewBox="0 0 219.92019085610696 219.92019085610696" height="219.92019085610696" width="219.92019085610696"><g><path d="M0 109.96c0-60.729 49.231-109.96 109.96-109.96 60.729 0 109.96 49.231 109.96 109.96 0 60.729-49.231 109.96-109.96 109.96-60.729 0-109.96-49.231-109.96-109.96zM109.96 215.588c58.337 0 105.628-47.291 105.628-105.628 0-58.337-47.291-105.628-105.628-105.628-58.337 0-105.628 47.291-105.628 105.628 0 58.337 47.291 105.628 105.628 105.628z" data-fill-palette-color="tertiary" fill="#ffffff" stroke="transparent"></path></g><g transform="matrix(1,0,0,1,43.51342782843227,60.609563408057404)"><svg viewBox="0 0 132.89333519924242 98.70106403999215" height="98.70106403999215" width="132.89333519924242"><g><svg xmlns="http://www.w3.org/2000/svg" xmlns:xlink="http://www.w3.org/1999/xlink" version="1.1" x="0" y="0" viewBox="7.5 18.435 85.001 63.131" enable-background="new 0 0 100 100" xml:space="preserve" height="98.70106403999215" width="132.89333519924242" class="icon-cg-0" data-fill-palette-color="accent" id="cg-0"><g fill="#8f6449" data-fill-palette-color="accent"><path d="M89.405 18.435H10.595c-1.706 0-3.095 1.389-3.095 3.095v56.941c0 1.706 1.389 3.095 3.095 3.095h78.811c1.707 0 3.095-1.389 3.095-3.095V77.14 32.027 21.529C92.5 19.823 91.112 18.435 89.405 18.435zM10.595 19.673h78.811c1.023 0 1.857 0.833 1.857 1.856v9.075c-0.068-0.01-0.136-0.021-0.207-0.021H8.951c-0.073 0-0.143 0.011-0.213 0.021v-9.076C8.738 20.506 9.571 19.673 10.595 19.673zM91.263 77.14c0 0.114-0.093 0.206-0.207 0.206H8.951c-0.113 0-0.206-0.092-0.206-0.206V32.027c0-0.113 0.093-0.206 0.206-0.206h82.104c0.114 0 0.207 0.093 0.207 0.206V77.14zM89.405 80.327H10.595c-0.992 0-1.798-0.784-1.848-1.764 0.067 0.01 0.135 0.021 0.204 0.021h82.104c0.068 0 0.133-0.011 0.197-0.02C91.202 79.544 90.396 80.327 89.405 80.327z" fill="#ffffff" data-fill-palette-color="accent"></path><path d="M28.178 27.787c1.45 0 2.63-1.18 2.63-2.63 0-1.451-1.18-2.631-2.63-2.631s-2.631 1.18-2.631 2.631C25.547 26.607 26.728 27.787 28.178 27.787zM28.178 23.765c0.768 0 1.393 0.624 1.393 1.393 0 0.768-0.625 1.393-1.393 1.393-0.769 0-1.393-0.625-1.393-1.393C26.785 24.389 27.409 23.765 28.178 23.765z" fill="#ffffff" data-fill-palette-color="accent"></path><path d="M21.458 27.787c1.451 0 2.631-1.18 2.631-2.63 0-1.451-1.18-2.631-2.631-2.631-1.45 0-2.63 1.18-2.63 2.631C18.828 26.607 20.008 27.787 21.458 27.787zM21.458 23.765c0.769 0 1.393 0.624 1.393 1.393 0 0.768-0.624 1.393-1.393 1.393-0.768 0-1.393-0.625-1.393-1.393C20.065 24.389 20.69 23.765 21.458 23.765z" fill="#ffffff" data-fill-palette-color="accent"></path><path d="M14.738 27.787c1.451 0 2.631-1.18 2.631-2.63 0-1.451-1.18-2.631-2.631-2.631-1.45 0-2.63 1.18-2.63 2.631C12.108 26.607 13.288 27.787 14.738 27.787zM14.738 23.765c0.769 0 1.393 0.624 1.393 1.393 0 0.768-0.624 1.393-1.393 1.393-0.768 0-1.393-0.625-1.393-1.393C13.346 24.389 13.971 23.765 14.738 23.765z" fill="#ffffff" data-fill-palette-color="accent"></path></g><path d="M26.598 65.915c-0.624 0-1.395-0.429-2.289-1.276-1.605-1.519-2.16-2.371-1.2-3.405l8.79-8.811-8.774-8.782c-0.676-0.676-0.57-1.195-0.401-1.57 0.242-0.544 0.814-1.117 1.479-1.781 0.829-0.829 1.542-1.542 2.241-1.542 0.342 0 0.679 0.172 1.033 0.526l11.769 11.755c0.311 0.254 0.521 0.659 0.564 1.134 0.048 0.537-0.134 1.152-0.452 1.533L27.53 65.514C27.243 65.787 26.941 65.915 26.598 65.915zM23.846 42.57c-0.009 0 0.027 0.068 0.154 0.194l9.211 9.221c0.241 0.242 0.241 0.633 0 0.875L24 62.093c-0.093 0.1-0.125 0.147-0.133 0.166 0.012 0.047 0.125 0.377 1.292 1.48 0.979 0.927 1.42 0.938 1.438 0.938v0.619l0.01-0.62c-0.001 0.001-0.001 0.001-0.001 0.001-0.003 0 0.02-0.012 0.061-0.05l11.777-11.767c0.061-0.077 0.151-0.357 0.131-0.589-0.013-0.145-0.063-0.246-0.162-0.328L26.601 40.148c-0.144-0.143-0.215-0.171-0.215-0.171-0.182 0.06-0.886 0.764-1.307 1.184-0.531 0.532-1.077 1.078-1.227 1.413C23.85 42.571 23.848 42.57 23.846 42.57z" fill="#ffffff" data-fill-palette-color="accent"></path><path d="M55.834 71.436H40.498c-1.594 0-1.92-1.234-1.92-3.088s0.326-3.088 1.92-3.088h15.336c1.503 0 1.787 1.085 1.787 3.088C57.621 70.396 57.346 71.436 55.834 71.436zM40.498 66.497c-0.366 0-0.683 0-0.683 1.851s0.316 1.851 0.683 1.851h15.336c0.354 0 0.55 0 0.55-1.851s-0.219-1.851-0.55-1.851H40.498z" fill="#ffffff" data-fill-palette-color="accent"></path></svg></g></svg></g></svg></g></svg></g><g></g></svg></g><defs></defs></svg><rect width="294.79425204905755" height="247.2" fill="none" stroke="none" visibility="hidden"></rect></g></svg></g></svg>