<svg width="94" height="78" viewBox="0 0 94 78" fill="none" xmlns="http://www.w3.org/2000/svg">
<g clip-path="url(#clip0_66_39)">
<path d="M1.53398 13.1929C-0.505954 11.2886 -0.505954 8.2113 1.53398 6.30701C3.57391 4.40271 6.88676 4.40271 8.92669 6.30701L40.26 35.557C42.3 37.4613 42.3 40.5539 40.26 42.4582L8.92669 71.7082C6.88676 73.6125 3.57391 73.6125 1.53398 71.7082C-0.505954 69.8039 -0.505954 66.7113 1.53398 64.807L29.1628 39L1.53398 13.1929ZM41.7777 63.375H88.7777C91.6663 63.375 94 65.5535 94 68.25C94 70.9465 91.6663 73.125 88.7777 73.125H41.7777C38.8892 73.125 36.5555 70.9465 36.5555 68.25C36.5555 65.5535 38.8892 63.375 41.7777 63.375Z" fill="#CFB21C"/>
</g>
<defs>
<clipPath id="clip0_66_39">
<rect width="94" height="78" fill="white"/>
</clipPath>
</defs>
</svg>
