<svg width="78" height="82" viewBox="0 0 78 82" fill="none" xmlns="http://www.w3.org/2000/svg">
<g filter="url(#filter0_dd_12_17)">
<rect x="38.8909" width="55" height="55" rx="10" transform="rotate(45 38.8909 0)" fill="#121111"/>
<path d="M31.8393 33.9091C31.737 33.0455 31.3222 32.375 30.595 31.8977C29.8677 31.4205 28.9756 31.1818 27.9188 31.1818C27.1461 31.1818 26.47 31.3068 25.8904 31.5568C25.3166 31.8068 24.8677 32.1506 24.5438 32.5881C24.2256 33.0256 24.0666 33.5227 24.0666 34.0795C24.0666 34.5455 24.1774 34.946 24.3989 35.2812C24.6262 35.6108 24.916 35.8864 25.2683 36.108C25.6205 36.3239 25.9899 36.5028 26.3762 36.6449C26.7626 36.7812 27.1177 36.892 27.4416 36.9773L29.2143 37.4545C29.6688 37.5739 30.1745 37.7386 30.7313 37.9489C31.2938 38.1591 31.8308 38.446 32.3421 38.8097C32.8592 39.1676 33.2853 39.6278 33.6205 40.1903C33.9558 40.7528 34.1234 41.4432 34.1234 42.2614C34.1234 43.2045 33.8762 44.0568 33.3819 44.8182C32.8933 45.5795 32.1774 46.1847 31.2342 46.6335C30.2967 47.0824 29.1575 47.3068 27.8166 47.3068C26.5666 47.3068 25.4842 47.1051 24.5694 46.7017C23.6603 46.2983 22.9444 45.7358 22.4217 45.0142C21.9046 44.2926 21.612 43.4545 21.5438 42.5H23.7256C23.7825 43.1591 24.0041 43.7045 24.3904 44.1364C24.7825 44.5625 25.2768 44.8807 25.8734 45.0909C26.4756 45.2955 27.1234 45.3977 27.8166 45.3977C28.6234 45.3977 29.3478 45.267 29.9899 45.0057C30.6319 44.7386 31.1404 44.3693 31.5154 43.8977C31.8904 43.4205 32.0779 42.8636 32.0779 42.2273C32.0779 41.6477 31.916 41.1761 31.5921 40.8125C31.2683 40.4489 30.8421 40.1534 30.3137 39.9261C29.7853 39.6989 29.2143 39.5 28.6006 39.3295L26.4529 38.7159C25.0893 38.3239 24.0097 37.7642 23.2143 37.0369C22.4188 36.3097 22.0211 35.358 22.0211 34.1818C22.0211 33.2045 22.2853 32.3523 22.8137 31.625C23.3478 30.892 24.0637 30.3239 24.9614 29.9205C25.8649 29.5114 26.8734 29.3068 27.987 29.3068C29.112 29.3068 30.112 29.5085 30.987 29.9119C31.862 30.3097 32.5552 30.8551 33.0666 31.5483C33.5836 32.2415 33.8563 33.0284 33.8847 33.9091H31.8393ZM37.5985 29.5455H40.1212L46.0531 44.0341H46.2576L52.1894 29.5455H54.7122V47H52.7349V33.7386H52.5644L47.1099 47H45.2008L39.7462 33.7386H39.5758V47H37.5985V29.5455Z" fill="#FBF0F0"/>
</g>
<defs>
<filter id="filter0_dd_12_17" x="0.142136" y="4.14215" width="77.4975" height="77.4975" filterUnits="userSpaceOnUse" color-interpolation-filters="sRGB">
<feFlood flood-opacity="0" result="BackgroundImageFix"/>
<feColorMatrix in="SourceAlpha" type="matrix" values="0 0 0 0 0 0 0 0 0 0 0 0 0 0 0 0 0 0 127 0" result="hardAlpha"/>
<feOffset dy="4"/>
<feGaussianBlur stdDeviation="2"/>
<feComposite in2="hardAlpha" operator="out"/>
<feColorMatrix type="matrix" values="0 0 0 0 0 0 0 0 0 0 0 0 0 0 0 0 0 0 0.25 0"/>
<feBlend mode="normal" in2="BackgroundImageFix" result="effect1_dropShadow_12_17"/>
<feColorMatrix in="SourceAlpha" type="matrix" values="0 0 0 0 0 0 0 0 0 0 0 0 0 0 0 0 0 0 127 0" result="hardAlpha"/>
<feOffset dy="4"/>
<feGaussianBlur stdDeviation="2"/>
<feComposite in2="hardAlpha" operator="out"/>
<feColorMatrix type="matrix" values="0 0 0 0 0 0 0 0 0 0 0 0 0 0 0 0 0 0 0.25 0"/>
<feBlend mode="normal" in2="effect1_dropShadow_12_17" result="effect2_dropShadow_12_17"/>
<feBlend mode="normal" in="SourceGraphic" in2="effect2_dropShadow_12_17" result="shape"/>
</filter>
</defs>
</svg>
