<svg width="32" height="32" viewBox="0 0 32 32" fill="none" xmlns="http://www.w3.org/2000/svg">
<rect width="32" height="32" fill="black"/>
<path d="M5.001 21.749C4.92767 21.749 4.86533 21.7233 4.814 21.672C4.76267 21.6207 4.737 21.5583 4.737 21.485V11.728C4.737 11.6547 4.76267 11.5923 4.814 11.541C4.86533 11.4897 4.92767 11.464 5.001 11.464H7.344C7.41733 11.464 7.47967 11.4897 7.531 11.541C7.58233 11.5923 7.608 11.6547 7.608 11.728V12.399C7.608 12.4723 7.58233 12.5347 7.531 12.586C7.47967 12.6373 7.41733 12.663 7.344 12.663H6.079V20.473H7.344C7.41733 20.473 7.47967 20.4987 7.531 20.55C7.58233 20.6013 7.608 20.6637 7.608 20.737V21.485C7.608 21.5583 7.58233 21.6207 7.531 21.672C7.47967 21.7233 7.41733 21.749 7.344 21.749H5.001Z" fill="white" fill-opacity="0.96"/>
<path d="M11.2478 20.11C10.5658 20.11 9.9938 20.011 9.5318 19.813C9.07713 19.6077 8.7288 19.3437 8.4868 19.021C8.25213 18.691 8.12746 18.3463 8.1128 17.987C8.1128 17.921 8.1348 17.866 8.1788 17.822C8.2228 17.778 8.2778 17.756 8.3438 17.756H9.3228C9.41813 17.756 9.4878 17.778 9.5318 17.822C9.58313 17.8587 9.62713 17.9063 9.6638 17.965C9.7078 18.1043 9.79213 18.2437 9.9168 18.383C10.0415 18.515 10.2101 18.625 10.4228 18.713C10.6428 18.801 10.9178 18.845 11.2478 18.845C11.7758 18.845 12.1681 18.757 12.4248 18.581C12.6888 18.405 12.8208 18.1667 12.8208 17.866C12.8208 17.6533 12.7511 17.4847 12.6118 17.36C12.4725 17.228 12.2561 17.1107 11.9628 17.008C11.6768 16.898 11.2955 16.7843 10.8188 16.667C10.2688 16.535 9.8068 16.3773 9.4328 16.194C9.06613 16.0033 8.78746 15.765 8.5968 15.479C8.41346 15.193 8.3218 14.83 8.3218 14.39C8.3218 13.9647 8.43546 13.587 8.6628 13.257C8.89746 12.927 9.22746 12.6667 9.6528 12.476C10.0855 12.2853 10.5988 12.19 11.1928 12.19C11.6695 12.19 12.0911 12.256 12.4578 12.388C12.8245 12.5127 13.1288 12.6813 13.3708 12.894C13.6128 13.0993 13.7961 13.323 13.9208 13.565C14.0528 13.7997 14.1225 14.0307 14.1298 14.258C14.1298 14.3167 14.1078 14.3717 14.0638 14.423C14.0271 14.467 13.9721 14.489 13.8988 14.489H12.8758C12.8171 14.489 12.7585 14.4743 12.6998 14.445C12.6411 14.4157 12.5935 14.3607 12.5568 14.28C12.5128 14.0527 12.3698 13.8583 12.1278 13.697C11.8858 13.5357 11.5741 13.455 11.1928 13.455C10.7968 13.455 10.4778 13.5283 10.2358 13.675C9.9938 13.8217 9.8728 14.049 9.8728 14.357C9.8728 14.5623 9.93146 14.7347 10.0488 14.874C10.1735 15.006 10.3678 15.1233 10.6318 15.226C10.9031 15.3287 11.2588 15.4387 11.6988 15.556C12.3221 15.6953 12.8318 15.8567 13.2278 16.04C13.6238 16.2233 13.9135 16.458 14.0968 16.744C14.2801 17.0227 14.3718 17.3783 14.3718 17.811C14.3718 18.295 14.2398 18.7093 13.9758 19.054C13.7191 19.3913 13.3561 19.6517 12.8868 19.835C12.4175 20.0183 11.8711 20.11 11.2478 20.11ZM15.9074 20C15.8267 20 15.7607 19.9743 15.7094 19.923C15.6581 19.8717 15.6324 19.8093 15.6324 19.736V12.575C15.6324 12.4943 15.6581 12.4283 15.7094 12.377C15.7607 12.3257 15.8267 12.3 15.9074 12.3H16.7764C16.8791 12.3 16.9561 12.3293 17.0074 12.388C17.0587 12.4393 17.0917 12.4797 17.1064 12.509L19.2294 16.469L21.3744 12.509C21.3891 12.4797 21.4221 12.4393 21.4734 12.388C21.5247 12.3293 21.6017 12.3 21.7044 12.3H22.5624C22.6431 12.3 22.7091 12.3257 22.7604 12.377C22.8117 12.4283 22.8374 12.4943 22.8374 12.575V19.736C22.8374 19.8093 22.8117 19.8717 22.7604 19.923C22.7091 19.9743 22.6431 20 22.5624 20H21.6384C21.5577 20 21.4917 19.9743 21.4404 19.923C21.3964 19.8717 21.3744 19.8093 21.3744 19.736V14.973L19.8344 17.91C19.7977 17.976 19.7501 18.0347 19.6914 18.086C19.6327 18.13 19.5557 18.152 19.4604 18.152H19.0094C18.9067 18.152 18.8261 18.13 18.7674 18.086C18.7161 18.0347 18.6721 17.976 18.6354 17.91L17.0954 14.973V19.736C17.0954 19.8093 17.0697 19.8717 17.0184 19.923C16.9671 19.9743 16.9047 20 16.8314 20H15.9074Z" fill="#E7EE1A"/>
<path d="M24.4016 21.749C24.3282 21.749 24.2659 21.7233 24.2146 21.672C24.1632 21.6207 24.1376 21.5583 24.1376 21.485V20.737C24.1376 20.6637 24.1632 20.6013 24.2146 20.55C24.2659 20.4987 24.3282 20.473 24.4016 20.473H25.6666V12.663H24.4016C24.3282 12.663 24.2659 12.6373 24.2146 12.586C24.1632 12.5347 24.1376 12.4723 24.1376 12.399V11.728C24.1376 11.6547 24.1632 11.5923 24.2146 11.541C24.2659 11.4897 24.3282 11.464 24.4016 11.464H26.7446C26.8252 11.464 26.8876 11.4897 26.9316 11.541C26.9829 11.5923 27.0086 11.6547 27.0086 11.728V21.485C27.0086 21.5583 26.9829 21.6207 26.9316 21.672C26.8876 21.7233 26.8252 21.749 26.7446 21.749H24.4016Z" fill="#E7EE1A" fill-opacity="0.96"/>
</svg>
