<svg width="326" height="165" viewBox="0 0 326 165" fill="none" xmlns="http://www.w3.org/2000/svg">
<g clip-path="url(#clip0_96_5)">
<rect width="326" height="165" fill="black"/>
<path d="M32.648 140.352C31.7947 140.352 31.0693 140.053 30.472 139.456C29.8747 138.859 29.576 138.133 29.576 137.28V23.744C29.576 22.8907 29.8747 22.1653 30.472 21.568C31.0693 20.9707 31.7947 20.672 32.648 20.672H59.912C60.7653 20.672 61.4907 20.9707 62.088 21.568C62.6853 22.1653 62.984 22.8907 62.984 23.744V31.552C62.984 32.4053 62.6853 33.1307 62.088 33.728C61.4907 34.3253 60.7653 34.624 59.912 34.624H45.192V125.504H59.912C60.7653 125.504 61.4907 125.803 62.088 126.4C62.6853 126.997 62.984 127.723 62.984 128.576V137.28C62.984 138.133 62.6853 138.859 62.088 139.456C61.4907 140.053 60.7653 140.352 59.912 140.352H32.648Z" fill="white" fill-opacity="0.96"/>
<path d="M105.338 121.28C97.402 121.28 90.746 120.128 85.37 117.824C80.0793 115.435 76.026 112.363 73.21 108.608C70.4793 104.768 69.0287 100.757 68.858 96.576C68.858 95.808 69.114 95.168 69.626 94.656C70.138 94.144 70.778 93.888 71.546 93.888H82.938C84.0473 93.888 84.858 94.144 85.37 94.656C85.9673 95.0827 86.4793 95.6373 86.906 96.32C87.418 97.9413 88.3993 99.5627 89.85 101.184C91.3007 102.72 93.2633 104 95.738 105.024C98.298 106.048 101.498 106.56 105.338 106.56C111.482 106.56 116.047 105.536 119.034 103.488C122.106 101.44 123.642 98.6667 123.642 95.168C123.642 92.6933 122.831 90.7307 121.21 89.28C119.589 87.744 117.071 86.3787 113.658 85.184C110.33 83.904 105.893 82.5813 100.346 81.216C93.946 79.68 88.57 77.8453 84.218 75.712C79.9513 73.4933 76.7087 70.72 74.49 67.392C72.3567 64.064 71.29 59.84 71.29 54.72C71.29 49.7707 72.6127 45.376 75.258 41.536C77.9887 37.696 81.8287 34.6667 86.778 32.448C91.8127 30.2293 97.786 29.12 104.698 29.12C110.245 29.12 115.151 29.888 119.418 31.424C123.685 32.8747 127.226 34.8373 130.042 37.312C132.858 39.7013 134.991 42.304 136.442 45.12C137.978 47.8507 138.789 50.5387 138.874 53.184C138.874 53.8667 138.618 54.5067 138.106 55.104C137.679 55.616 137.039 55.872 136.186 55.872H124.282C123.599 55.872 122.917 55.7013 122.234 55.36C121.551 55.0187 120.997 54.3787 120.57 53.44C120.058 50.7947 118.394 48.5333 115.578 46.656C112.762 44.7787 109.135 43.84 104.698 43.84C100.09 43.84 96.378 44.6933 93.562 46.4C90.746 48.1067 89.338 50.752 89.338 54.336C89.338 56.7253 90.0207 58.7307 91.386 60.352C92.8367 61.888 95.098 63.2533 98.17 64.448C101.327 65.6427 105.466 66.9227 110.586 68.288C117.839 69.9093 123.77 71.7867 128.378 73.92C132.986 76.0533 136.357 78.784 138.49 82.112C140.623 85.3547 141.69 89.4933 141.69 94.528C141.69 100.16 140.154 104.981 137.082 108.992C134.095 112.917 129.871 115.947 124.41 118.08C118.949 120.213 112.591 121.28 105.338 121.28ZM159.559 120C158.62 120 157.852 119.701 157.255 119.104C156.658 118.507 156.359 117.781 156.359 116.928V33.6C156.359 32.6613 156.658 31.8933 157.255 31.296C157.852 30.6987 158.62 30.4 159.559 30.4H169.671C170.866 30.4 171.762 30.7413 172.359 31.424C172.956 32.0213 173.34 32.4907 173.511 32.832L198.215 78.912L223.175 32.832C223.346 32.4907 223.73 32.0213 224.327 31.424C224.924 30.7413 225.82 30.4 227.015 30.4H236.999C237.938 30.4 238.706 30.6987 239.303 31.296C239.9 31.8933 240.199 32.6613 240.199 33.6V116.928C240.199 117.781 239.9 118.507 239.303 119.104C238.706 119.701 237.938 120 236.999 120H226.247C225.308 120 224.54 119.701 223.943 119.104C223.431 118.507 223.175 117.781 223.175 116.928V61.504L205.255 95.68C204.828 96.448 204.274 97.1307 203.591 97.728C202.908 98.24 202.012 98.496 200.903 98.496H195.655C194.46 98.496 193.522 98.24 192.839 97.728C192.242 97.1307 191.73 96.448 191.303 95.68L173.383 61.504V116.928C173.383 117.781 173.084 118.507 172.487 119.104C171.89 119.701 171.164 120 170.311 120H159.559Z" fill="#E7EE1A"/>
<path d="M258.4 140.352C257.547 140.352 256.821 140.053 256.224 139.456C255.627 138.859 255.328 138.133 255.328 137.28V128.576C255.328 127.723 255.627 126.997 256.224 126.4C256.821 125.803 257.547 125.504 258.4 125.504H273.12V34.624H258.4C257.547 34.624 256.821 34.3253 256.224 33.728C255.627 33.1307 255.328 32.4053 255.328 31.552V23.744C255.328 22.8907 255.627 22.1653 256.224 21.568C256.821 20.9707 257.547 20.672 258.4 20.672H285.664C286.603 20.672 287.328 20.9707 287.84 21.568C288.437 22.1653 288.736 22.8907 288.736 23.744V137.28C288.736 138.133 288.437 138.859 287.84 139.456C287.328 140.053 286.603 140.352 285.664 140.352H258.4Z" fill="#E7EE1A" fill-opacity="0.96"/>
</g>
<defs>
<clipPath id="clip0_96_5">
<rect width="326" height="165" fill="white"/>
</clipPath>
</defs>
</svg>
