<svg width="60" height="60" viewBox="0 0 60 60" fill="none" xmlns="http://www.w3.org/2000/svg">
<g clip-path="url(#clip0_213_11)">
<path d="M0 1.55847H3.89611V7.40264H0V1.55847ZM3.89611 1.55847H7.7922V7.40264H3.89611V1.55847ZM7.7922 1.55847H11.6883V7.40264H7.7922V1.55847ZM11.6883 1.55847H15.5844V7.40264H11.6883V1.55847ZM15.5844 1.55847H19.4805V7.40264H15.5844V1.55847ZM19.4805 1.55847H23.3765V7.40264H19.4805V1.55847ZM19.4805 7.40264H23.3765V13.2468H19.4805V7.40264ZM15.5844 7.40264H19.4805V13.2468H15.5844V7.40264ZM11.6883 7.40264H15.5844V13.2468H11.6883V7.40264ZM7.7922 7.40264H11.6883V13.2468H7.7922V7.40264ZM3.89611 7.40264H7.7922V13.2468H3.89611V7.40264ZM0 7.40264H3.89611V13.2468H0V7.40264ZM23.3765 7.40264H27.2727V13.2468H23.3765V7.40264ZM23.3765 13.2468H27.2727V19.0909H23.3765V13.2468ZM23.3765 19.0909H27.2727V24.9351H23.3765V19.0909ZM19.4805 19.0909H23.3765V24.9351H19.4805V19.0909ZM19.4805 13.2468H23.3765V19.0909H19.4805V13.2468ZM19.4805 24.9351H23.3765V30.7792H19.4805V24.9351ZM15.5844 24.9351H19.4805V30.7792H15.5844V24.9351ZM11.6883 24.9351H15.5844V30.7792H11.6883V24.9351ZM7.7922 24.9351H11.6883V30.7792H7.7922V24.9351ZM3.89611 24.9351H7.7922V30.7792H3.89611V24.9351ZM3.89611 19.0909H7.7922V24.9351H3.89611V19.0909ZM3.89611 13.2468H7.7922V19.0909H3.89611V13.2468ZM0 13.2468H3.89611V19.0909H0V13.2468ZM0 19.0909H3.89611V24.9351H0V19.0909ZM0 24.9351H3.89611V30.7792H0V24.9351ZM0 30.7792H3.89611V36.6235H0V30.7792ZM3.89611 30.7792H7.7922V36.6235H3.89611V30.7792ZM7.7922 30.7792H11.6883V36.6235H7.7922V30.7792ZM11.6883 30.7792H15.5844V36.6235H11.6883V30.7792ZM15.5844 30.7792H19.4805V36.6235H15.5844V30.7792ZM19.4805 30.7792H23.3765V36.6235H19.4805V30.7792ZM23.3765 30.7792H27.2727V36.6235H23.3765V30.7792ZM23.3765 36.6235H27.2727V42.4675H23.3765V36.6235ZM19.4805 36.6235H23.3765V42.4675H19.4805V36.6235ZM19.4805 48.3118H23.3765V54.1558H19.4805V48.3118ZM23.3765 48.3118H27.2727V54.1558H23.3765V48.3118ZM23.3765 42.4675H27.2727V48.3118H23.3765V42.4675ZM19.4805 42.4675H23.3765V48.3118H19.4805V42.4675ZM19.4805 54.1558H23.3765V60H19.4805V54.1558ZM15.5844 54.1558H19.4805V60H15.5844V54.1558ZM11.6883 54.1558H15.5844V60H11.6883V54.1558ZM7.7922 54.1558H11.6883V60H7.7922V54.1558ZM3.89611 54.1558H7.7922V60H3.89611V54.1558ZM0 54.1558H3.89611V60H0V54.1558ZM0 48.3118H3.89611V54.1558H0V48.3118ZM0 42.4675H3.89611V48.3118H0V42.4675ZM0 36.6235H3.89611V42.4675H0V36.6235ZM3.89611 36.6235H7.7922V42.4675H3.89611V36.6235ZM3.89611 42.4675H7.7922V48.3118H3.89611V42.4675ZM3.89611 48.3118H7.7922V54.1558H3.89611V48.3118ZM7.7922 48.3118H11.6883V54.1558H7.7922V48.3118ZM11.6883 48.3118H15.5844V54.1558H11.6883V48.3118ZM15.5844 48.3118H19.4805V54.1558H15.5844V48.3118ZM31.1789 1.55847H35.0751V7.40264H31.1789V1.55847ZM35.0751 1.55847H38.9713V7.40264H35.0751V1.55847ZM35.0751 7.40264H38.9713V13.2468H35.0751V7.40264ZM35.0751 13.2468H38.9713V19.0909H35.0751V13.2468ZM35.0751 19.0909H38.9713V24.9351H35.0751V19.0909ZM31.1789 13.2468H35.0751V19.0909H31.1789V13.2468ZM31.1789 7.40264H35.0751V13.2468H31.1789V7.40264ZM31.1789 19.0909H35.0751V24.9351H31.1789V19.0909ZM31.1789 24.9351H35.0751V30.7792H31.1789V24.9351ZM31.1789 36.6235H35.0751V42.4675H31.1789V36.6235ZM31.1789 30.7792H35.0751V36.6235H31.1789V30.7792ZM35.0751 24.9351H38.9713V30.7792H35.0751V24.9351ZM35.0751 30.7792H38.9713V36.6235H35.0751V30.7792ZM35.0751 36.6235H38.9713V42.4675H35.0751V36.6235ZM35.0751 42.4675H38.9713V48.3118H35.0751V42.4675ZM31.1789 42.4675H35.0751V48.3118H31.1789V42.4675ZM31.1789 54.1558H35.0751V60H31.1789V54.1558ZM35.0751 54.1558H38.9713V60H35.0751V54.1558ZM35.0751 48.3118H38.9713V54.1558H35.0751V48.3118ZM31.1789 48.3118H35.0751V54.1558H31.1789V48.3118ZM54.5556 54.1558H58.4516V60H54.5556V54.1558ZM54.5556 48.3118H58.4516V54.1558H54.5556V48.3118ZM54.5556 42.4675H58.4516V48.3118H54.5556V42.4675ZM54.5556 36.6235H58.4516V42.4675H54.5556V36.6235ZM54.5556 30.7792H58.4516V36.6235H54.5556V30.7792ZM54.5556 24.9351H58.4516V30.7792H54.5556V24.9351ZM54.5556 1.55847H58.4516V7.40264H54.5556V1.55847ZM50.6595 1.55847H54.5556V7.40264H50.6595V1.55847ZM50.6595 7.40264H54.5556V13.2468H50.6595V7.40264ZM50.6595 13.2468H54.5556V19.0909H50.6595V13.2468ZM50.6595 19.0909H54.5556V24.9351H50.6595V19.0909ZM54.5556 19.0909H58.4516V24.9351H54.5556V19.0909ZM54.5556 13.2468H58.4516V19.0909H54.5556V13.2468ZM54.5556 7.40264H58.4516V13.2468H54.5556V7.40264ZM50.6595 24.9351H54.5556V30.7792H50.6595V24.9351ZM50.6595 48.3118H54.5556V54.1558H50.6595V48.3118ZM50.6595 42.4675H54.5556V48.3118H50.6595V42.4675ZM50.6595 36.6235H54.5556V42.4675H50.6595V36.6235ZM50.6595 30.7792H54.5556V36.6235H50.6595V30.7792ZM50.6595 54.1558H54.5556V60H50.6595V54.1558ZM46.7635 24.9351H50.6595V30.7792H46.7635V24.9351ZM42.8673 24.9351H46.7635V30.7792H42.8673V24.9351ZM38.9713 24.9351H42.8673V30.7792H38.9713V24.9351ZM38.9713 30.7792H42.8673V36.6235H38.9713V30.7792ZM42.8673 30.7792H46.7635V36.6235H42.8673V30.7792ZM46.7635 30.7792H50.6595V36.6235H46.7635V30.7792Z" fill="url(#paint0_linear_213_11)"/>
</g>
<defs>
<linearGradient id="paint0_linear_213_11" x1="54.5455" y1="34.7368" x2="-9.09091" y2="34.7368" gradientUnits="userSpaceOnUse">
<stop offset="0.107087" stop-color="#658E62"/>
<stop offset="1" stop-color="#12BF07"/>
</linearGradient>
<clipPath id="clip0_213_11">
<rect width="60" height="60" fill="white"/>
</clipPath>
</defs>
</svg>
