<svg width="60" height="60" viewBox="0 0 60 60" fill="none" xmlns="http://www.w3.org/2000/svg">
<g clip-path="url(#clip0_216_11)">
<path d="M29.8296 0C24.076 -7.07556e-08 18.4516 1.75947 13.6677 5.05592C8.88367 8.35236 5.15502 13.0377 2.9532 18.5195C0.751375 24.0013 0.175277 30.0332 1.29776 35.8526C2.42024 41.6721 5.19087 47.0177 9.25931 51.2132C13.3277 55.4087 18.5112 58.266 24.1543 59.4236C29.7974 60.5811 35.6467 59.9871 40.9623 57.7164C46.278 55.4458 50.8214 51.6006 54.018 46.6671C57.2145 41.7336 58.9205 35.9334 58.9205 30H44.3751C44.3751 32.9668 43.5221 35.8669 41.9238 38.3336C40.3256 40.8004 38.0538 42.7228 35.396 43.8581C32.7381 44.9934 29.8136 45.2906 26.992 44.7118C24.1705 44.133 21.5787 42.7044 19.5445 40.6067C17.5103 38.5088 16.125 35.8361 15.5637 32.9263C15.0025 30.0167 15.2905 27.0006 16.3914 24.2597C17.4924 21.5188 19.3567 19.1762 21.7487 17.5279C24.1407 15.8797 26.9529 15 29.8296 15V0Z" fill="white"/>
<path d="M29.8296 0C26.0094 -4.698e-08 22.2265 0.775972 18.697 2.28362C15.1676 3.79125 11.9606 6.00103 9.2593 8.78679C6.55795 11.5726 4.41513 14.8797 2.95319 18.5195C1.49123 22.1593 0.73877 26.0604 0.73877 30H15.2842C15.2842 28.0301 15.6605 26.0796 16.3914 24.2597C17.1224 22.4398 18.1938 20.7862 19.5445 19.3933C20.8952 18.0005 22.4987 16.8956 24.2634 16.1418C26.0281 15.388 27.9196 15 29.8296 15V0Z" fill="#5CE1E6"/>
<path d="M29.8297 39.375C34.8504 39.375 38.9206 35.1777 38.9206 30C38.9206 24.8223 34.8504 20.625 29.8297 20.625C24.8089 20.625 20.7388 24.8223 20.7388 30C20.7388 35.1777 24.8089 39.375 29.8297 39.375Z" fill="#5CE1E6"/>
<path d="M38.9204 30C38.9204 28.7689 38.6853 27.5498 38.2284 26.4124C37.7717 25.275 37.102 24.2415 36.2579 23.3709C35.4137 22.5004 34.4115 21.8098 33.3086 21.3386C32.2055 20.8674 31.0235 20.625 29.8295 20.625C28.6357 20.625 27.4537 20.8674 26.3506 21.3386C25.2477 21.8098 24.2455 22.5004 23.4013 23.3709C22.5571 24.2415 21.8875 25.275 21.4308 26.4124C20.9739 27.5498 20.7386 28.7689 20.7388 30H29.8295H38.9204Z" fill="white"/>
</g>
<defs>
<clipPath id="clip0_216_11">
<rect width="60" height="60" fill="white"/>
</clipPath>
</defs>
</svg>
