<svg width="60" height="60" viewBox="0 0 60 60" fill="none" xmlns="http://www.w3.org/2000/svg">
<g clip-path="url(#clip0_213_2)">
<path d="M44.6251 39.6051L51.9674 5.37974H60V0H48.4577L46.7268 8.068L0 8.02823L4.96774 39.6049L44.6251 39.6051ZM45.5729 13.4468L41.1154 34.2251H8.71889L5.44457 13.4126L45.5729 13.4468Z" fill="#E27210"/>
<path d="M38.4389 59.2103C42.4237 59.2103 45.6653 55.3508 45.6653 50.6071C45.6653 45.8634 42.4237 42.0043 38.4389 42.0043H11.212C7.22725 42.0043 3.98535 45.8634 3.98535 50.6071C3.98535 55.3508 7.22718 59.2103 11.212 59.2103C15.1968 59.2103 18.4386 55.3508 18.4386 50.6071C18.4386 49.468 18.2511 48.38 17.9118 47.384H31.7391C31.3997 48.38 31.2123 49.468 31.2123 50.6071C31.2123 55.3508 34.4542 59.2103 38.4389 59.2103ZM13.9196 50.6071C13.9196 52.3846 12.705 53.8306 11.212 53.8306C9.719 53.8306 8.50434 52.3846 8.50434 50.6071C8.50434 48.83 9.71893 47.384 11.212 47.384C12.705 47.384 13.9196 48.83 13.9196 50.6071ZM41.1466 50.6071C41.1466 52.3846 39.932 53.8306 38.4389 53.8306C36.9459 53.8306 35.7313 52.3846 35.7313 50.6071C35.7313 48.83 36.9459 47.384 38.4389 47.384C39.932 47.384 41.1466 48.83 41.1466 50.6071Z" fill="#E27210"/>
</g>
<defs>
<clipPath id="clip0_213_2">
<rect width="60" height="60" fill="white"/>
</clipPath>
</defs>
</svg>
